<mxfile host="Electron" modified="2023-12-12T03:43:22.356Z" agent="Mozilla/5.0 (X11; Linux x86_64) AppleWebKit/537.36 (KHTML, like Gecko) draw.io/22.1.2 Chrome/114.0.5735.289 Electron/25.9.4 Safari/537.36" etag="AzKypEKAn1WiT4C-IPF1" version="22.1.2" type="device">
  <diagram name="Страница-1" id="Страница-1">
    <mxGraphModel dx="3550" dy="2073" grid="1" gridSize="10" guides="1" tooltips="1" connect="1" arrows="1" fold="1" page="1" pageScale="1" pageWidth="827" pageHeight="1169" math="0" shadow="0">
      <root>
        <mxCell id="0" />
        <mxCell id="1" parent="0" />
        <mxCell id="rFzxfalwFgXO4eg9ru58-133" value="" style="group;fontFamily=Arial;fontStyle=2" parent="1" vertex="1" connectable="0">
          <mxGeometry x="76" y="10" width="740" height="1148" as="geometry" />
        </mxCell>
        <mxCell id="2" style="vsdxID=5;fillColor=#FFFFFF;gradientColor=none;shape=stencil(nY9LDoAgDERP0z3SI/i5BwkoRAUC+Lu9kGo0Lt3NtK/tFLCOWngFnMUU3Kg2I5MGbIBzY7UKJmUF2ALWvQtqCG6xkrwXhSxqdmvZsNNcxViZ4ewgT64jdDL2hf4E7wsXmsWThd549765c4l+xvYE);strokeColor=#000000;strokeWidth=4;spacingTop=-1;spacingBottom=-1;spacingLeft=-1;spacingRight=-1;labelBackgroundColor=#ffffff;rounded=0;html=1;whiteSpace=wrap;fontFamily=Arial;fontStyle=2" parent="rFzxfalwFgXO4eg9ru58-133" vertex="1">
          <mxGeometry y="928" width="740" height="220" as="geometry" />
        </mxCell>
        <mxCell id="131" style="vsdxID=30;edgeStyle=none;startArrow=none;endArrow=none;startSize=5;endSize=5;strokeWidth=4;strokeColor=#000000;spacingTop=-1;spacingBottom=-1;spacingLeft=-1;spacingRight=-1;verticalAlign=middle;html=1;labelBackgroundColor=#ffffff;rounded=0;fontFamily=Arial;fontStyle=2" parent="rFzxfalwFgXO4eg9ru58-133" edge="1">
          <mxGeometry as="geometry">
            <Array as="points" />
            <mxPoint x="28" y="928" as="sourcePoint" />
            <mxPoint x="28" y="1028" as="targetPoint" />
          </mxGeometry>
        </mxCell>
        <mxCell id="130" style="vsdxID=29;edgeStyle=none;startArrow=none;endArrow=none;startSize=5;endSize=5;strokeColor=#000000;spacingTop=-1;spacingBottom=-1;spacingLeft=-1;spacingRight=-1;verticalAlign=middle;html=1;labelBackgroundColor=#ffffff;rounded=0;fontFamily=Arial;fontStyle=2" parent="rFzxfalwFgXO4eg9ru58-133" edge="1">
          <mxGeometry as="geometry">
            <mxPoint as="offset" />
            <Array as="points" />
            <mxPoint y="1128" as="sourcePoint" />
            <mxPoint x="260" y="1128" as="targetPoint" />
          </mxGeometry>
        </mxCell>
        <mxCell id="129" style="vsdxID=28;edgeStyle=none;startArrow=none;endArrow=none;startSize=5;endSize=5;strokeColor=#000000;spacingTop=-1;spacingBottom=-1;spacingLeft=-1;spacingRight=-1;verticalAlign=middle;html=1;labelBackgroundColor=#ffffff;rounded=0;fontFamily=Arial;fontStyle=2" parent="rFzxfalwFgXO4eg9ru58-133" edge="1">
          <mxGeometry as="geometry">
            <mxPoint as="offset" />
            <Array as="points" />
            <mxPoint y="1108" as="sourcePoint" />
            <mxPoint x="260" y="1108" as="targetPoint" />
          </mxGeometry>
        </mxCell>
        <mxCell id="128" style="vsdxID=27;edgeStyle=none;startArrow=none;endArrow=none;startSize=5;endSize=5;strokeColor=#000000;spacingTop=-1;spacingBottom=-1;spacingLeft=-1;spacingRight=-1;verticalAlign=middle;html=1;labelBackgroundColor=#ffffff;rounded=0;fontFamily=Arial;fontStyle=2" parent="rFzxfalwFgXO4eg9ru58-133" edge="1">
          <mxGeometry as="geometry">
            <mxPoint as="offset" />
            <Array as="points" />
            <mxPoint y="1088" as="sourcePoint" />
            <mxPoint x="260" y="1088" as="targetPoint" />
          </mxGeometry>
        </mxCell>
        <mxCell id="127" style="vsdxID=26;edgeStyle=none;startArrow=none;endArrow=none;startSize=5;endSize=5;strokeColor=#000000;spacingTop=-1;spacingBottom=-1;spacingLeft=-1;spacingRight=-1;verticalAlign=middle;html=1;labelBackgroundColor=#ffffff;rounded=0;fontFamily=Arial;fontStyle=2" parent="rFzxfalwFgXO4eg9ru58-133" edge="1">
          <mxGeometry as="geometry">
            <mxPoint as="offset" />
            <Array as="points" />
            <mxPoint y="1068" as="sourcePoint" />
            <mxPoint x="260" y="1068" as="targetPoint" />
          </mxGeometry>
        </mxCell>
        <mxCell id="126" style="vsdxID=25;edgeStyle=none;startArrow=none;endArrow=none;startSize=5;endSize=5;strokeColor=#000000;spacingTop=-1;spacingBottom=-1;spacingLeft=-1;spacingRight=-1;verticalAlign=middle;html=1;labelBackgroundColor=#ffffff;rounded=0;fontFamily=Arial;fontStyle=2" parent="rFzxfalwFgXO4eg9ru58-133" edge="1">
          <mxGeometry as="geometry">
            <mxPoint as="offset" />
            <Array as="points" />
            <mxPoint y="1048" as="sourcePoint" />
            <mxPoint x="260" y="1048" as="targetPoint" />
          </mxGeometry>
        </mxCell>
        <mxCell id="125" style="vsdxID=24;edgeStyle=none;startArrow=none;endArrow=none;startSize=5;endSize=5;strokeWidth=4;strokeColor=#000000;spacingTop=-1;spacingBottom=-1;spacingLeft=-1;spacingRight=-1;verticalAlign=middle;html=1;labelBackgroundColor=#ffffff;rounded=0;fontFamily=Arial;fontStyle=2" parent="rFzxfalwFgXO4eg9ru58-133" edge="1">
          <mxGeometry as="geometry">
            <mxPoint as="offset" />
            <Array as="points" />
            <mxPoint y="1028" as="sourcePoint" />
            <mxPoint x="260" y="1028" as="targetPoint" />
          </mxGeometry>
        </mxCell>
        <mxCell id="124" style="vsdxID=23;edgeStyle=none;startArrow=none;endArrow=none;startSize=5;endSize=5;strokeWidth=4;strokeColor=#000000;spacingTop=-1;spacingBottom=-1;spacingLeft=-1;spacingRight=-1;verticalAlign=middle;html=1;labelBackgroundColor=#ffffff;rounded=0;fontFamily=Arial;fontStyle=2" parent="rFzxfalwFgXO4eg9ru58-133" edge="1">
          <mxGeometry as="geometry">
            <mxPoint as="offset" />
            <Array as="points" />
            <mxPoint y="1008" as="sourcePoint" />
            <mxPoint x="260" y="1008" as="targetPoint" />
          </mxGeometry>
        </mxCell>
        <mxCell id="123" style="vsdxID=22;edgeStyle=none;startArrow=none;endArrow=none;startSize=5;endSize=5;strokeColor=#000000;spacingTop=-1;spacingBottom=-1;spacingLeft=-1;spacingRight=-1;verticalAlign=middle;html=1;labelBackgroundColor=#ffffff;rounded=0;fontFamily=Arial;fontStyle=2" parent="rFzxfalwFgXO4eg9ru58-133" edge="1">
          <mxGeometry as="geometry">
            <mxPoint as="offset" />
            <Array as="points" />
            <mxPoint y="988" as="sourcePoint" />
            <mxPoint x="260" y="988" as="targetPoint" />
          </mxGeometry>
        </mxCell>
        <mxCell id="122" style="vsdxID=21;edgeStyle=none;startArrow=none;endArrow=none;startSize=5;endSize=5;strokeColor=#000000;spacingTop=-1;spacingBottom=-1;spacingLeft=-1;spacingRight=-1;verticalAlign=middle;html=1;labelBackgroundColor=#ffffff;rounded=0;fontFamily=Arial;fontStyle=2" parent="rFzxfalwFgXO4eg9ru58-133" edge="1">
          <mxGeometry as="geometry">
            <mxPoint as="offset" />
            <Array as="points" />
            <mxPoint y="968" as="sourcePoint" />
            <mxPoint x="260" y="968" as="targetPoint" />
          </mxGeometry>
        </mxCell>
        <mxCell id="121" style="vsdxID=20;edgeStyle=none;startArrow=none;endArrow=none;startSize=5;endSize=5;strokeColor=#000000;spacingTop=-1;spacingBottom=-1;spacingLeft=-1;spacingRight=-1;verticalAlign=middle;html=1;labelBackgroundColor=#ffffff;rounded=0;fontSize=16;fontFamily=Arial;fontStyle=2" parent="rFzxfalwFgXO4eg9ru58-133" edge="1">
          <mxGeometry as="geometry">
            <mxPoint as="offset" />
            <Array as="points" />
            <mxPoint y="948" as="sourcePoint" />
            <mxPoint x="260" y="948" as="targetPoint" />
          </mxGeometry>
        </mxCell>
        <mxCell id="120" style="vsdxID=19;edgeStyle=none;startArrow=none;endArrow=none;startSize=5;endSize=5;strokeWidth=4;strokeColor=#000000;spacingTop=-1;spacingBottom=-1;spacingLeft=-1;spacingRight=-1;verticalAlign=middle;html=1;labelBackgroundColor=#ffffff;rounded=0;fontFamily=Arial;fontStyle=2" parent="rFzxfalwFgXO4eg9ru58-133" edge="1">
          <mxGeometry as="geometry">
            <Array as="points" />
            <mxPoint x="68" y="928" as="sourcePoint" />
            <mxPoint x="68" y="1148" as="targetPoint" />
          </mxGeometry>
        </mxCell>
        <mxCell id="119" style="vsdxID=18;edgeStyle=none;startArrow=none;endArrow=none;startSize=5;endSize=5;strokeWidth=4;strokeColor=#000000;spacingTop=-1;spacingBottom=-1;spacingLeft=-1;spacingRight=-1;verticalAlign=middle;html=1;labelBackgroundColor=#ffffff;rounded=0;fontFamily=Arial;fontStyle=2" parent="rFzxfalwFgXO4eg9ru58-133" edge="1">
          <mxGeometry as="geometry">
            <Array as="points" />
            <mxPoint x="160" y="928" as="sourcePoint" />
            <mxPoint x="160" y="1148" as="targetPoint" />
          </mxGeometry>
        </mxCell>
        <mxCell id="118" style="vsdxID=17;edgeStyle=none;startArrow=none;endArrow=none;startSize=5;endSize=5;strokeWidth=4;strokeColor=#000000;spacingTop=-1;spacingBottom=-1;spacingLeft=-1;spacingRight=-1;verticalAlign=middle;html=1;labelBackgroundColor=#ffffff;rounded=0;fontFamily=Arial;fontStyle=2" parent="rFzxfalwFgXO4eg9ru58-133" edge="1">
          <mxGeometry as="geometry">
            <Array as="points" />
            <mxPoint x="220" y="928" as="sourcePoint" />
            <mxPoint x="220" y="1148" as="targetPoint" />
          </mxGeometry>
        </mxCell>
        <mxCell id="117" style="vsdxID=16;edgeStyle=none;startArrow=none;endArrow=none;startSize=5;endSize=5;strokeWidth=4;strokeColor=#000000;spacingTop=-1;spacingBottom=-1;spacingLeft=-1;spacingRight=-1;verticalAlign=middle;html=1;labelBackgroundColor=#ffffff;rounded=0;fontFamily=Arial;fontStyle=2" parent="rFzxfalwFgXO4eg9ru58-133" edge="1">
          <mxGeometry as="geometry">
            <Array as="points" />
            <mxPoint x="670" y="988" as="sourcePoint" />
            <mxPoint x="670" y="1068" as="targetPoint" />
          </mxGeometry>
        </mxCell>
        <mxCell id="116" style="vsdxID=15;edgeStyle=none;startArrow=none;endArrow=none;startSize=5;endSize=5;strokeWidth=4;strokeColor=#000000;spacingTop=-1;spacingBottom=-1;spacingLeft=-1;spacingRight=-1;verticalAlign=middle;html=1;labelBackgroundColor=#ffffff;rounded=0;fontFamily=Arial;fontStyle=2" parent="rFzxfalwFgXO4eg9ru58-133" edge="1">
          <mxGeometry as="geometry">
            <Array as="points" />
            <mxPoint x="620" y="1068" as="sourcePoint" />
            <mxPoint x="620" y="1088" as="targetPoint" />
          </mxGeometry>
        </mxCell>
        <mxCell id="115" style="vsdxID=14;edgeStyle=none;startArrow=none;endArrow=none;startSize=5;endSize=5;strokeColor=#000000;spacingTop=-1;spacingBottom=-1;spacingLeft=-1;spacingRight=-1;verticalAlign=middle;html=1;labelBackgroundColor=#ffffff;rounded=0;fontFamily=Arial;fontStyle=2" parent="rFzxfalwFgXO4eg9ru58-133" edge="1">
          <mxGeometry as="geometry">
            <Array as="points" />
            <mxPoint x="580" y="1008" as="sourcePoint" />
            <mxPoint x="580" y="1068" as="targetPoint" />
          </mxGeometry>
        </mxCell>
        <mxCell id="114" style="vsdxID=13;edgeStyle=none;startArrow=none;endArrow=none;startSize=5;endSize=5;strokeColor=#000000;spacingTop=-1;spacingBottom=-1;spacingLeft=-1;spacingRight=-1;verticalAlign=middle;html=1;labelBackgroundColor=#ffffff;rounded=0;fontFamily=Arial;fontStyle=2" parent="rFzxfalwFgXO4eg9ru58-133" edge="1">
          <mxGeometry as="geometry">
            <Array as="points" />
            <mxPoint x="560" y="1008" as="sourcePoint" />
            <mxPoint x="560" y="1068" as="targetPoint" />
          </mxGeometry>
        </mxCell>
        <mxCell id="113" style="vsdxID=12;edgeStyle=none;startArrow=none;endArrow=none;startSize=5;endSize=5;strokeWidth=4;strokeColor=#000000;spacingTop=-1;spacingBottom=-1;spacingLeft=-1;spacingRight=-1;verticalAlign=middle;html=1;labelBackgroundColor=#ffffff;rounded=0;fontFamily=Arial;fontStyle=2" parent="rFzxfalwFgXO4eg9ru58-133" edge="1">
          <mxGeometry as="geometry">
            <Array as="points" />
            <mxPoint x="600" y="988" as="sourcePoint" />
            <mxPoint x="600" y="1068" as="targetPoint" />
          </mxGeometry>
        </mxCell>
        <mxCell id="112" style="vsdxID=11;edgeStyle=none;startArrow=none;endArrow=none;startSize=5;endSize=5;strokeWidth=4;strokeColor=#000000;spacingTop=-1;spacingBottom=-1;spacingLeft=-1;spacingRight=-1;verticalAlign=middle;html=1;labelBackgroundColor=#ffffff;rounded=0;fontFamily=Arial;fontStyle=2" parent="rFzxfalwFgXO4eg9ru58-133" edge="1">
          <mxGeometry as="geometry">
            <mxPoint as="offset" />
            <Array as="points" />
            <mxPoint x="540" y="1068" as="sourcePoint" />
            <mxPoint x="740" y="1068" as="targetPoint" />
          </mxGeometry>
        </mxCell>
        <mxCell id="111" style="vsdxID=10;edgeStyle=none;startArrow=none;endArrow=none;startSize=5;endSize=5;strokeWidth=4;strokeColor=#000000;spacingTop=-1;spacingBottom=-1;spacingLeft=-1;spacingRight=-1;verticalAlign=middle;html=1;labelBackgroundColor=#ffffff;rounded=0;fontFamily=Arial;fontStyle=2" parent="rFzxfalwFgXO4eg9ru58-133" edge="1">
          <mxGeometry as="geometry">
            <mxPoint as="offset" />
            <Array as="points" />
            <mxPoint x="540" y="1008" as="sourcePoint" />
            <mxPoint x="740" y="1008" as="targetPoint" />
          </mxGeometry>
        </mxCell>
        <mxCell id="110" style="vsdxID=9;edgeStyle=none;startArrow=none;endArrow=none;startSize=5;endSize=5;strokeWidth=4;strokeColor=#000000;spacingTop=-1;spacingBottom=-1;spacingLeft=-1;spacingRight=-1;verticalAlign=middle;html=1;labelBackgroundColor=#ffffff;rounded=0;fontFamily=Arial;fontStyle=2" parent="rFzxfalwFgXO4eg9ru58-133" edge="1">
          <mxGeometry as="geometry">
            <Array as="points" />
            <mxPoint x="540" y="988" as="sourcePoint" />
            <mxPoint x="540" y="1148" as="targetPoint" />
          </mxGeometry>
        </mxCell>
        <mxCell id="109" style="vsdxID=8;edgeStyle=none;startArrow=none;endArrow=none;startSize=5;endSize=5;strokeWidth=4;strokeColor=#000000;spacingTop=-1;spacingBottom=-1;spacingLeft=-1;spacingRight=-1;verticalAlign=middle;html=1;labelBackgroundColor=#ffffff;rounded=0;fontFamily=Arial;fontStyle=2" parent="rFzxfalwFgXO4eg9ru58-133" edge="1">
          <mxGeometry as="geometry">
            <Array as="points" />
            <mxPoint x="740" y="1088" as="sourcePoint" />
            <mxPoint x="260" y="1088" as="targetPoint" />
          </mxGeometry>
        </mxCell>
        <mxCell id="108" style="vsdxID=7;edgeStyle=none;startArrow=none;endArrow=none;startSize=5;endSize=5;strokeWidth=4;strokeColor=#000000;spacingTop=-1;spacingBottom=-1;spacingLeft=-1;spacingRight=-1;verticalAlign=middle;html=1;labelBackgroundColor=#ffffff;rounded=0;fontFamily=Arial;fontStyle=2" parent="rFzxfalwFgXO4eg9ru58-133" edge="1">
          <mxGeometry as="geometry">
            <Array as="points" />
            <mxPoint x="260" y="928" as="sourcePoint" />
            <mxPoint x="260" y="1148" as="targetPoint" />
          </mxGeometry>
        </mxCell>
        <mxCell id="107" style="vsdxID=6;edgeStyle=none;startArrow=none;endArrow=none;startSize=5;endSize=5;strokeWidth=4;strokeColor=#000000;spacingTop=-1;spacingBottom=-1;spacingLeft=-1;spacingRight=-1;verticalAlign=middle;html=1;labelBackgroundColor=#ffffff;rounded=0;fontFamily=Arial;fontStyle=2" parent="rFzxfalwFgXO4eg9ru58-133" edge="1">
          <mxGeometry as="geometry">
            <Array as="points" />
            <mxPoint x="740" y="988" as="sourcePoint" />
            <mxPoint x="260" y="988" as="targetPoint" />
          </mxGeometry>
        </mxCell>
        <mxCell id="3" value="&lt;font style=&quot;font-size: 11px; color: rgb(0, 0, 0); direction: ltr; letter-spacing: 0px; line-height: 120%; opacity: 1;&quot;&gt;&lt;span&gt;Изм&lt;br&gt;&lt;/span&gt;&lt;/font&gt;" style="verticalAlign=middle;align=center;vsdxID=31;fillColor=none;gradientColor=none;shape=stencil(nZBLDoAgDERP0z3SIyjew0SURgSD+Lu9kMZoXLhwN9O+tukAlrNpJg1SzDH4QW/URgNYgZTkjA4UkwJUgGXng+6DX1zLfmoymdXo17xh5zmRJ6Q42BWCfc2oJfdAr+Yv+AP9Cb7OJ3H/2JG1HNGz/84klThPVCc=);strokeColor=none;strokeWidth=4;spacingTop=-1;spacingBottom=-1;spacingLeft=-1;spacingRight=-1;labelBackgroundColor=none;rounded=0;html=1;whiteSpace=wrap;fontFamily=Arial;fontStyle=2" parent="rFzxfalwFgXO4eg9ru58-133" vertex="1">
          <mxGeometry y="1010" width="27" height="16" as="geometry" />
        </mxCell>
        <mxCell id="4" value="&lt;font style=&quot;font-size: 11px; color: rgb(0, 0, 0); direction: ltr; letter-spacing: 0px; line-height: 120%; opacity: 1;&quot;&gt;&lt;span&gt;Лист&lt;br&gt;&lt;/span&gt;&lt;/font&gt;" style="verticalAlign=middle;align=center;vsdxID=32;fillColor=none;gradientColor=none;shape=stencil(nZBLDoAgDERP0z3SIyjew0SURgSD+Lu9kMZoXLhwN9O+tukAlrNpJg1SzDH4QW/URgNYgZTkjA4UkwJUgGXng+6DX1zLfmoymdXo17xh5zmRJ6Q42BWCfc2oJfdAr+Yv+AP9Cb7OJ3H/2JG1HNGz/84klThPVCc=);strokeColor=none;strokeWidth=4;spacingTop=-1;spacingBottom=-1;spacingLeft=-1;spacingRight=-1;labelBackgroundColor=none;rounded=0;html=1;whiteSpace=wrap;fontFamily=Arial;fontStyle=2" parent="rFzxfalwFgXO4eg9ru58-133" vertex="1">
          <mxGeometry x="30" y="1010" width="36" height="16" as="geometry" />
        </mxCell>
        <mxCell id="5" value="&lt;font style=&quot;font-size: 11px; color: rgb(0, 0, 0); direction: ltr; letter-spacing: 0px; line-height: 120%; opacity: 1;&quot;&gt;&lt;span&gt;№ документа&lt;br&gt;&lt;/span&gt;&lt;/font&gt;" style="verticalAlign=middle;align=center;vsdxID=33;fillColor=none;gradientColor=none;shape=stencil(nZBLDoAgDERP0z3SIyjew0SURgSD+Lu9kMZoXLhwN9O+tukAlrNpJg1SzDH4QW/URgNYgZTkjA4UkwJUgGXng+6DX1zLfmoymdXo17xh5zmRJ6Q42BWCfc2oJfdAr+Yv+AP9Cb7OJ3H/2JG1HNGz/84klThPVCc=);strokeColor=none;strokeWidth=4;spacingTop=-1;spacingBottom=-1;spacingLeft=-1;spacingRight=-1;labelBackgroundColor=none;rounded=0;html=1;whiteSpace=wrap;fontFamily=Arial;fontStyle=2" parent="rFzxfalwFgXO4eg9ru58-133" vertex="1">
          <mxGeometry x="70" y="1010" width="88" height="16" as="geometry" />
        </mxCell>
        <mxCell id="6" value="&lt;font style=&quot;font-size: 11px; color: rgb(0, 0, 0); direction: ltr; letter-spacing: 0px; line-height: 120%; opacity: 1;&quot;&gt;&lt;span&gt;Подпись&lt;br&gt;&lt;/span&gt;&lt;/font&gt;" style="verticalAlign=middle;align=center;vsdxID=34;fillColor=none;gradientColor=none;shape=stencil(nZBLDoAgDERP0z3SIyjew0SURgSD+Lu9kMZoXLhwN9O+tukAlrNpJg1SzDH4QW/URgNYgZTkjA4UkwJUgGXng+6DX1zLfmoymdXo17xh5zmRJ6Q42BWCfc2oJfdAr+Yv+AP9Cb7OJ3H/2JG1HNGz/84klThPVCc=);strokeColor=none;strokeWidth=4;spacingTop=-1;spacingBottom=-1;spacingLeft=-1;spacingRight=-1;labelBackgroundColor=none;rounded=0;html=1;whiteSpace=wrap;fontFamily=Arial;fontStyle=2" parent="rFzxfalwFgXO4eg9ru58-133" vertex="1">
          <mxGeometry x="162" y="1010" width="56" height="16" as="geometry" />
        </mxCell>
        <mxCell id="7" value="&lt;font style=&quot;font-size: 11px; color: rgb(0, 0, 0); direction: ltr; letter-spacing: 0px; line-height: 120%; opacity: 1;&quot;&gt;&lt;span&gt;Дата&lt;br&gt;&lt;/span&gt;&lt;/font&gt;" style="verticalAlign=middle;align=center;vsdxID=35;fillColor=none;gradientColor=none;shape=stencil(nZBLDoAgDERP0z3SIyjew0SURgSD+Lu9kMZoXLhwN9O+tukAlrNpJg1SzDH4QW/URgNYgZTkjA4UkwJUgGXng+6DX1zLfmoymdXo17xh5zmRJ6Q42BWCfc2oJfdAr+Yv+AP9Cb7OJ3H/2JG1HNGz/84klThPVCc=);strokeColor=none;strokeWidth=4;spacingTop=-1;spacingBottom=-1;spacingLeft=-1;spacingRight=-1;labelBackgroundColor=none;rounded=0;html=1;whiteSpace=wrap;fontFamily=Arial;fontStyle=2" parent="rFzxfalwFgXO4eg9ru58-133" vertex="1">
          <mxGeometry x="222" y="1010" width="36" height="16" as="geometry" />
        </mxCell>
        <mxCell id="8" value="&lt;font style=&quot;font-size: 11px; color: rgb(0, 0, 0); direction: ltr; letter-spacing: 0px; line-height: 120%; opacity: 1;&quot;&gt;&lt;span&gt;Лит.&lt;br&gt;&lt;/span&gt;&lt;/font&gt;" style="verticalAlign=middle;align=center;vsdxID=36;fillColor=none;gradientColor=none;shape=stencil(nZBLDoAgDERP0z3SIyjew0SURgSD+Lu9kMZoXLhwN9O+tukAlrNpJg1SzDH4QW/URgNYgZTkjA4UkwJUgGXng+6DX1zLfmoymdXo17xh5zmRJ6Q42BWCfc2oJfdAr+Yv+AP9Cb7OJ3H/2JG1HNGz/84klThPVCc=);strokeColor=none;strokeWidth=4;spacingTop=-1;spacingBottom=-1;spacingLeft=-1;spacingRight=-1;labelBackgroundColor=none;rounded=0;html=1;whiteSpace=wrap;fontFamily=Arial;fontStyle=2" parent="rFzxfalwFgXO4eg9ru58-133" vertex="1">
          <mxGeometry x="542" y="990" width="56" height="16" as="geometry" />
        </mxCell>
        <mxCell id="9" value="&lt;font style=&quot;font-size: 11px; color: rgb(0, 0, 0); direction: ltr; letter-spacing: 0px; line-height: 120%; opacity: 1;&quot;&gt;&lt;span&gt;Масса&lt;br&gt;&lt;/span&gt;&lt;/font&gt;" style="verticalAlign=middle;align=center;vsdxID=37;fillColor=none;gradientColor=none;shape=stencil(nZBLDoAgDERP0z3SIyjew0SURgSD+Lu9kMZoXLhwN9O+tukAlrNpJg1SzDH4QW/URgNYgZTkjA4UkwJUgGXng+6DX1zLfmoymdXo17xh5zmRJ6Q42BWCfc2oJfdAr+Yv+AP9Cb7OJ3H/2JG1HNGz/84klThPVCc=);strokeColor=none;strokeWidth=4;spacingTop=-1;spacingBottom=-1;spacingLeft=-1;spacingRight=-1;labelBackgroundColor=none;rounded=0;html=1;whiteSpace=wrap;fontFamily=Arial;fontStyle=2" parent="rFzxfalwFgXO4eg9ru58-133" vertex="1">
          <mxGeometry x="602" y="990" width="66" height="16" as="geometry" />
        </mxCell>
        <mxCell id="10" value="&lt;font style=&quot;font-size: 11px; color: rgb(0, 0, 0); direction: ltr; letter-spacing: 0px; line-height: 120%; opacity: 1;&quot;&gt;&lt;span&gt;Масштаб&lt;br&gt;&lt;/span&gt;&lt;/font&gt;" style="verticalAlign=middle;align=center;vsdxID=38;fillColor=none;gradientColor=none;shape=stencil(nZBLDoAgDERP0z3SIyjew0SURgSD+Lu9kMZoXLhwN9O+tukAlrNpJg1SzDH4QW/URgNYgZTkjA4UkwJUgGXng+6DX1zLfmoymdXo17xh5zmRJ6Q42BWCfc2oJfdAr+Yv+AP9Cb7OJ3H/2JG1HNGz/84klThPVCc=);strokeColor=none;strokeWidth=4;spacingTop=-1;spacingBottom=-1;spacingLeft=-1;spacingRight=-1;labelBackgroundColor=none;rounded=0;html=1;whiteSpace=wrap;fontFamily=Arial;fontStyle=2" parent="rFzxfalwFgXO4eg9ru58-133" vertex="1">
          <mxGeometry x="672" y="990" width="66" height="16" as="geometry" />
        </mxCell>
        <mxCell id="11" value="&lt;font style=&quot;font-size: 11px; color: rgb(0, 0, 0); direction: ltr; letter-spacing: 0px; line-height: 120%; opacity: 1;&quot;&gt;&lt;span&gt;Лист&lt;br&gt;&lt;/span&gt;&lt;/font&gt;" style="verticalAlign=middle;align=center;vsdxID=39;fillColor=none;gradientColor=none;shape=stencil(nZBLDoAgDERP0z3SIyjew0SURgSD+Lu9kMZoXLhwN9O+tukAlrNpJg1SzDH4QW/URgNYgZTkjA4UkwJUgGXng+6DX1zLfmoymdXo17xh5zmRJ6Q42BWCfc2oJfdAr+Yv+AP9Cb7OJ3H/2JG1HNGz/84klThPVCc=);strokeColor=none;strokeWidth=4;spacingTop=-1;spacingBottom=-1;spacingLeft=-1;spacingRight=-1;labelBackgroundColor=none;rounded=0;html=1;whiteSpace=wrap;fontFamily=Arial;fontStyle=2" parent="rFzxfalwFgXO4eg9ru58-133" vertex="1">
          <mxGeometry x="542" y="1070" width="76" height="16" as="geometry" />
        </mxCell>
        <mxCell id="12" value="&lt;font style=&quot;font-size: 11px; color: rgb(0, 0, 0); direction: ltr; letter-spacing: 0px; line-height: 120%; opacity: 1;&quot;&gt;&lt;span&gt;Листов&lt;br&gt;&lt;/span&gt;&lt;/font&gt;" style="verticalAlign=middle;align=center;vsdxID=40;fillColor=none;gradientColor=none;shape=stencil(nZBLDoAgDERP0z3SIyjew0SURgSD+Lu9kMZoXLhwN9O+tukAlrNpJg1SzDH4QW/URgNYgZTkjA4UkwJUgGXng+6DX1zLfmoymdXo17xh5zmRJ6Q42BWCfc2oJfdAr+Yv+AP9Cb7OJ3H/2JG1HNGz/84klThPVCc=);strokeColor=none;strokeWidth=4;spacingTop=-1;spacingBottom=-1;spacingLeft=-1;spacingRight=-1;labelBackgroundColor=none;rounded=0;html=1;whiteSpace=wrap;fontFamily=Arial;fontStyle=2" parent="rFzxfalwFgXO4eg9ru58-133" vertex="1">
          <mxGeometry x="622" y="1070" width="116" height="16" as="geometry" />
        </mxCell>
        <mxCell id="13" value="&lt;p style=&quot;margin-left: 0 ; margin-right: 0 ; margin-top: 0px ; margin-bottom: 0px ; text-indent: 0 ; direction: rtl&quot;&gt;&lt;font style=&quot;font-size: 14px; color: rgb(0, 0, 0); direction: ltr; letter-spacing: 0px; line-height: 120%; opacity: 1;&quot;&gt;&lt;span&gt;.Разраб&lt;br&gt;&lt;/span&gt;&lt;/font&gt;&lt;/p&gt;" style="verticalAlign=middle;align=left;vsdxID=41;fillColor=none;gradientColor=none;shape=stencil(nZBLDoAgDERP0z3SIyjew0SURgSD+Lu9kMZoXLhwN9O+tukAlrNpJg1SzDH4QW/URgNYgZTkjA4UkwJUgGXng+6DX1zLfmoymdXo17xh5zmRJ6Q42BWCfc2oJfdAr+Yv+AP9Cb7OJ3H/2JG1HNGz/84klThPVCc=);strokeColor=none;strokeWidth=4;spacingTop=-1;spacingBottom=-1;spacingLeft=-1;spacingRight=-1;labelBackgroundColor=none;rounded=0;html=1;whiteSpace=wrap;fontFamily=Arial;fontStyle=2" parent="rFzxfalwFgXO4eg9ru58-133" vertex="1">
          <mxGeometry x="2" y="1030" width="66" height="16" as="geometry" />
        </mxCell>
        <mxCell id="14" value="&lt;p style=&quot;margin-left: 0 ; margin-right: 0 ; margin-top: 0px ; margin-bottom: 0px ; text-indent: 0 ; direction: rtl&quot;&gt;&lt;font style=&quot;font-size: 14px; color: rgb(0, 0, 0); direction: ltr; letter-spacing: 0px; line-height: 120%; opacity: 1;&quot;&gt;&lt;span&gt;.Пров&lt;br&gt;&lt;/span&gt;&lt;/font&gt;&lt;/p&gt;" style="verticalAlign=middle;align=left;vsdxID=42;fillColor=none;gradientColor=none;shape=stencil(nZBLDoAgDERP0z3SIyjew0SURgSD+Lu9kMZoXLhwN9O+tukAlrNpJg1SzDH4QW/URgNYgZTkjA4UkwJUgGXng+6DX1zLfmoymdXo17xh5zmRJ6Q42BWCfc2oJfdAr+Yv+AP9Cb7OJ3H/2JG1HNGz/84klThPVCc=);strokeColor=none;strokeWidth=4;spacingTop=-1;spacingBottom=-1;spacingLeft=-1;spacingRight=-1;labelBackgroundColor=none;rounded=0;html=1;whiteSpace=wrap;fontFamily=Arial;fontStyle=2" parent="rFzxfalwFgXO4eg9ru58-133" vertex="1">
          <mxGeometry x="2" y="1048" width="64" height="20" as="geometry" />
        </mxCell>
        <mxCell id="15" value="&lt;p style=&quot;margin-left: 0 ; margin-right: 0 ; margin-top: 0px ; margin-bottom: 0px ; text-indent: 0 ; direction: rtl&quot;&gt;&lt;font style=&quot;font-size: 14px; color: rgb(0, 0, 0); direction: ltr; letter-spacing: 0px; line-height: 120%; opacity: 1;&quot;&gt;&lt;span&gt;Сенкевич&lt;/span&gt;&lt;/font&gt;&lt;/p&gt;" style="verticalAlign=middle;align=left;vsdxID=43;fillColor=none;gradientColor=none;shape=stencil(nZBLDoAgDERP0z3SIyjew0SURgSD+Lu9kMZoXLhwN9O+tukAlrNpJg1SzDH4QW/URgNYgZTkjA4UkwJUgGXng+6DX1zLfmoymdXo17xh5zmRJ6Q42BWCfc2oJfdAr+Yv+AP9Cb7OJ3H/2JG1HNGz/84klThPVCc=);strokeColor=none;spacingTop=-1;spacingBottom=-1;spacingLeft=-1;spacingRight=-1;labelBackgroundColor=none;rounded=0;html=1;whiteSpace=wrap;fontFamily=Arial;fontStyle=2" parent="rFzxfalwFgXO4eg9ru58-133" vertex="1">
          <mxGeometry x="70" y="1028" width="88" height="20" as="geometry" />
        </mxCell>
        <mxCell id="16" value="&lt;p style=&quot;margin-left: 0 ; margin-right: 0 ; margin-top: 0px ; margin-bottom: 0px ; text-indent: 0 ; direction: rtl&quot;&gt;&lt;span style=&quot;font-size: 14px;&quot;&gt;Русакович&lt;/span&gt;&lt;/p&gt;" style="verticalAlign=middle;align=left;vsdxID=44;fillColor=none;gradientColor=none;shape=stencil(nZBLDoAgDERP0z3SIyjew0SURgSD+Lu9kMZoXLhwN9O+tukAlrNpJg1SzDH4QW/URgNYgZTkjA4UkwJUgGXng+6DX1zLfmoymdXo17xh5zmRJ6Q42BWCfc2oJfdAr+Yv+AP9Cb7OJ3H/2JG1HNGz/84klThPVCc=);strokeColor=none;spacingTop=-1;spacingBottom=-1;spacingLeft=-1;spacingRight=-1;labelBackgroundColor=none;rounded=0;html=1;whiteSpace=wrap;fontFamily=Arial;fontStyle=2" parent="rFzxfalwFgXO4eg9ru58-133" vertex="1">
          <mxGeometry x="70" y="1048" width="88" height="20" as="geometry" />
        </mxCell>
        <mxCell id="17" value="&lt;font style=&quot;font-size: 19px; color: rgb(0, 0, 0); direction: ltr; letter-spacing: 0px; line-height: 120%; opacity: 1;&quot;&gt;&lt;span&gt;ЭВМ, гр. 050503&lt;br&gt;&lt;/span&gt;&lt;/font&gt;" style="verticalAlign=middle;align=center;vsdxID=45;fillColor=none;gradientColor=none;shape=stencil(nZBLDoAgDERP0z3SIyjew0SURgSD+Lu9kMZoXLhwN9O+tukAlrNpJg1SzDH4QW/URgNYgZTkjA4UkwJUgGXng+6DX1zLfmoymdXo17xh5zmRJ6Q42BWCfc2oJfdAr+Yv+AP9Cb7OJ3H/2JG1HNGz/84klThPVCc=);strokeColor=none;spacingTop=-1;spacingBottom=-1;spacingLeft=-1;spacingRight=-1;labelBackgroundColor=none;rounded=0;html=1;whiteSpace=wrap;fontFamily=Arial;fontStyle=2" parent="rFzxfalwFgXO4eg9ru58-133" vertex="1">
          <mxGeometry x="539" y="1088" width="200" height="60" as="geometry" />
        </mxCell>
        <mxCell id="18" value="&lt;font style=&quot;font-size: 33px; color: rgb(0, 0, 0); direction: ltr; letter-spacing: 0px; line-height: 120%; opacity: 1;&quot;&gt;&lt;span&gt;ГУИР.400201.080 Д1&lt;br&gt;&lt;/span&gt;&lt;/font&gt;" style="verticalAlign=middle;align=center;vsdxID=46;fillColor=none;gradientColor=none;shape=stencil(nZBLDoAgDERP0z3SIyjew0SURgSD+Lu9kMZoXLhwN9O+tukAlrNpJg1SzDH4QW/URgNYgZTkjA4UkwJUgGXng+6DX1zLfmoymdXo17xh5zmRJ6Q42BWCfc2oJfdAr+Yv+AP9Cb7OJ3H/2JG1HNGz/84klThPVCc=);strokeColor=none;spacingTop=-1;spacingBottom=-1;spacingLeft=-1;spacingRight=-1;labelBackgroundColor=none;rounded=0;html=1;whiteSpace=wrap;fontFamily=Arial;fontStyle=2" parent="rFzxfalwFgXO4eg9ru58-133" vertex="1">
          <mxGeometry x="260" y="928" width="480" height="60" as="geometry" />
        </mxCell>
        <mxCell id="19" value="&lt;div style=&quot;font-size: 20px;&quot;&gt;&lt;span style=&quot;background-color: initial;&quot;&gt;Локальная компьютерная сеть.&lt;/span&gt;&lt;span style=&quot;background-color: initial;&quot;&gt;Перечень&lt;br&gt;оборудования, изделий и&lt;br&gt;материалов&amp;nbsp;&lt;/span&gt;&lt;br&gt;&lt;/div&gt;" style="verticalAlign=middle;align=center;vsdxID=47;fillColor=none;gradientColor=none;shape=stencil(nZBLDoAgDERP0z3SIyjew0SURgSD+Lu9kMZoXLhwN9O+tukAlrNpJg1SzDH4QW/URgNYgZTkjA4UkwJUgGXng+6DX1zLfmoymdXo17xh5zmRJ6Q42BWCfc2oJfdAr+Yv+AP9Cb7OJ3H/2JG1HNGz/84klThPVCc=);strokeColor=none;spacingTop=-1;spacingBottom=-1;spacingLeft=-1;spacingRight=-1;labelBackgroundColor=none;rounded=0;html=1;whiteSpace=wrap;fontFamily=Arial;fontStyle=2" parent="rFzxfalwFgXO4eg9ru58-133" vertex="1">
          <mxGeometry x="260" y="988" width="280" height="100" as="geometry" />
        </mxCell>
        <mxCell id="20" value="&lt;font style=&quot;font-size: 19px; color: rgb(0, 0, 0); direction: ltr; letter-spacing: 0px; line-height: 120%; opacity: 1;&quot;&gt;&lt;span&gt;У&lt;br&gt;&lt;/span&gt;&lt;/font&gt;" style="verticalAlign=middle;align=center;vsdxID=48;fillColor=none;gradientColor=none;shape=stencil(nZBLDoAgDERP0z3SIyjew0SURgSD+Lu9kMZoXLhwN9O+tukAlrNpJg1SzDH4QW/URgNYgZTkjA4UkwJUgGXng+6DX1zLfmoymdXo17xh5zmRJ6Q42BWCfc2oJfdAr+Yv+AP9Cb7OJ3H/2JG1HNGz/84klThPVCc=);strokeColor=none;spacingTop=-1;spacingBottom=-1;spacingLeft=-1;spacingRight=-1;labelBackgroundColor=none;rounded=0;html=1;whiteSpace=wrap;fontFamily=Arial;fontStyle=2" parent="rFzxfalwFgXO4eg9ru58-133" vertex="1">
          <mxGeometry x="560" y="1008" width="20" height="60" as="geometry" />
        </mxCell>
        <mxCell id="21" value="&lt;font style=&quot;font-size: 11px; color: rgb(0, 0, 0); direction: ltr; letter-spacing: 0px; line-height: 120%; opacity: 1;&quot;&gt;&lt;span&gt;1&lt;br&gt;&lt;/span&gt;&lt;/font&gt;" style="verticalAlign=middle;align=center;vsdxID=49;fillColor=none;gradientColor=none;shape=stencil(nZBLDoAgDERP0z3SIyjew0SURgSD+Lu9kMZoXLhwN9O+tukAlrNpJg1SzDH4QW/URgNYgZTkjA4UkwJUgGXng+6DX1zLfmoymdXo17xh5zmRJ6Q42BWCfc2oJfdAr+Yv+AP9Cb7OJ3H/2JG1HNGz/84klThPVCc=);strokeColor=none;spacingTop=-1;spacingBottom=-1;spacingLeft=-1;spacingRight=-1;labelBackgroundColor=none;rounded=0;html=1;whiteSpace=wrap;fontFamily=Arial;fontStyle=2" parent="rFzxfalwFgXO4eg9ru58-133" vertex="1">
          <mxGeometry x="709" y="1069" width="20" height="16" as="geometry" />
        </mxCell>
        <mxCell id="22" value="&lt;font style=&quot;font-size: 16px; color: rgb(0, 0, 0); direction: ltr; letter-spacing: 0px; line-height: 120%; opacity: 1;&quot;&gt;&lt;span&gt;Позиция&lt;br&gt;&lt;/span&gt;&lt;/font&gt;" style="verticalAlign=middle;align=center;vsdxID=50;fillColor=none;gradientColor=none;shape=stencil(nZBLDoAgDERP0z3SIyjew0SURgSD+Lu9kMZoXLhwN9O+tukAlrNpJg1SzDH4QW/URgNYgZTkjA4UkwJUgGXng+6DX1zLfmoymdXo17xh5zmRJ6Q42BWCfc2oJfdAr+Yv+AP9Cb7OJ3H/2JG1HNGz/84klThPVCc=);strokeWidth=3;labelBackgroundColor=none;rounded=0;html=1;whiteSpace=wrap;fontStyle=2;fontFamily=Arial;spacingLeft=2;" parent="rFzxfalwFgXO4eg9ru58-133" vertex="1">
          <mxGeometry width="80" height="60" as="geometry" />
        </mxCell>
        <mxCell id="23" value="&lt;font style=&quot;font-size: 16px; color: rgb(0, 0, 0); direction: ltr; letter-spacing: 0px; line-height: 120%; opacity: 1;&quot;&gt;&lt;span&gt;Наименование&lt;br&gt;&lt;/span&gt;&lt;/font&gt;" style="verticalAlign=middle;align=center;vsdxID=51;fillColor=none;gradientColor=none;shape=stencil(nZBLDoAgDERP0z3SIyjew0SURgSD+Lu9kMZoXLhwN9O+tukAlrNpJg1SzDH4QW/URgNYgZTkjA4UkwJUgGXng+6DX1zLfmoymdXo17xh5zmRJ6Q42BWCfc2oJfdAr+Yv+AP9Cb7OJ3H/2JG1HNGz/84klThPVCc=);strokeWidth=3;labelBackgroundColor=none;rounded=0;html=1;whiteSpace=wrap;fontStyle=2;fontFamily=Arial;spacingLeft=2;" parent="rFzxfalwFgXO4eg9ru58-133" vertex="1">
          <mxGeometry x="80" width="380" height="60" as="geometry" />
        </mxCell>
        <mxCell id="24" value="&lt;font style=&quot;font-size: 16px; color: rgb(0, 0, 0); direction: ltr; letter-spacing: 0px; line-height: 120%; opacity: 1;&quot;&gt;&lt;span&gt;Примечание&lt;br&gt;&lt;/span&gt;&lt;/font&gt;" style="verticalAlign=middle;align=center;vsdxID=52;fillColor=none;gradientColor=none;shape=stencil(nZBLDoAgDERP0z3SIyjew0SURgSD+Lu9kMZoXLhwN9O+tukAlrNpJg1SzDH4QW/URgNYgZTkjA4UkwJUgGXng+6DX1zLfmoymdXo17xh5zmRJ6Q42BWCfc2oJfdAr+Yv+AP9Cb7OJ3H/2JG1HNGz/84klThPVCc=);strokeWidth=3;labelBackgroundColor=none;rounded=0;html=1;whiteSpace=wrap;fontStyle=2;fontFamily=Arial;" parent="rFzxfalwFgXO4eg9ru58-133" vertex="1">
          <mxGeometry x="620" width="120" height="60" as="geometry" />
        </mxCell>
        <mxCell id="25" style="vsdxID=53;fillColor=none;gradientColor=none;shape=stencil(nZBLDoAgDERP0z3SIyjew0SURgSD+Lu9kMZoXLhwN9O+tukAlrNpJg1SzDH4QW/URgNYgZTkjA4UkwJUgGXng+6DX1zLfmoymdXo17xh5zmRJ6Q42BWCfc2oJfdAr+Yv+AP9Cb7OJ3H/2JG1HNGz/84klThPVCc=);labelBackgroundColor=none;rounded=0;html=1;whiteSpace=wrap;fontStyle=2;fontFamily=Arial;align=left;fontSize=16;spacingLeft=2;" parent="rFzxfalwFgXO4eg9ru58-133" vertex="1">
          <mxGeometry y="60" width="79.9211" height="32" as="geometry" />
        </mxCell>
        <mxCell id="26" value="&lt;u style=&quot;font-size: 19px;&quot;&gt;Устройства сетевые активные&lt;/u&gt;" style="vsdxID=54;fillColor=none;gradientColor=none;shape=stencil(nZBLDoAgDERP0z3SIyjew0SURgSD+Lu9kMZoXLhwN9O+tukAlrNpJg1SzDH4QW/URgNYgZTkjA4UkwJUgGXng+6DX1zLfmoymdXo17xh5zmRJ6Q42BWCfc2oJfdAr+Yv+AP9Cb7OJ3H/2JG1HNGz/84klThPVCc=);labelBackgroundColor=none;rounded=0;html=1;whiteSpace=wrap;fontStyle=2;fontFamily=Arial;align=left;fontSize=16;spacingLeft=2;" parent="rFzxfalwFgXO4eg9ru58-133" vertex="1">
          <mxGeometry x="80" y="60" width="380" height="32" as="geometry" />
        </mxCell>
        <mxCell id="27" value="" style="vsdxID=55;fillColor=none;gradientColor=none;shape=stencil(nZBLDoAgDERP0z3SIyjew0SURgSD+Lu9kMZoXLhwN9O+tukAlrNpJg1SzDH4QW/URgNYgZTkjA4UkwJUgGXng+6DX1zLfmoymdXo17xh5zmRJ6Q42BWCfc2oJfdAr+Yv+AP9Cb7OJ3H/2JG1HNGz/84klThPVCc=);labelBackgroundColor=none;rounded=0;html=1;whiteSpace=wrap;fontStyle=2;fontFamily=Arial;align=center;fontSize=13;" parent="rFzxfalwFgXO4eg9ru58-133" vertex="1">
          <mxGeometry x="620" y="60" width="120" height="32" as="geometry" />
        </mxCell>
        <mxCell id="28" value="1" style="vsdxID=56;fillColor=none;gradientColor=none;shape=stencil(nZBLDoAgDERP0z3SIyjew0SURgSD+Lu9kMZoXLhwN9O+tukAlrNpJg1SzDH4QW/URgNYgZTkjA4UkwJUgGXng+6DX1zLfmoymdXo17xh5zmRJ6Q42BWCfc2oJfdAr+Yv+AP9Cb7OJ3H/2JG1HNGz/84klThPVCc=);labelBackgroundColor=none;rounded=0;html=1;whiteSpace=wrap;fontStyle=2;fontFamily=Arial;align=center;fontSize=16;spacingLeft=2;" parent="rFzxfalwFgXO4eg9ru58-133" vertex="1">
          <mxGeometry y="92" width="79.9211" height="32" as="geometry" />
        </mxCell>
        <mxCell id="29" value="&lt;font style=&quot;direction: ltr; line-height: 120%; opacity: 1;&quot;&gt;&lt;font style=&quot;font-size: 16px;&quot;&gt;Motorola MB8611&lt;/font&gt;&lt;br&gt;&lt;/font&gt;" style="verticalAlign=middle;align=left;vsdxID=57;fillColor=none;gradientColor=none;shape=stencil(nZBLDoAgDERP0z3SIyjew0SURgSD+Lu9kMZoXLhwN9O+tukAlrNpJg1SzDH4QW/URgNYgZTkjA4UkwJUgGXng+6DX1zLfmoymdXo17xh5zmRJ6Q42BWCfc2oJfdAr+Yv+AP9Cb7OJ3H/2JG1HNGz/84klThPVCc=);labelBackgroundColor=none;rounded=0;html=1;whiteSpace=wrap;spacingLeft=2;fontStyle=2;fontFamily=Arial;" parent="rFzxfalwFgXO4eg9ru58-133" vertex="1">
          <mxGeometry x="80" y="92" width="380" height="32" as="geometry" />
        </mxCell>
        <mxCell id="30" value="&lt;p style=&quot;line-height: 90%;&quot;&gt;&lt;span style=&quot;font-size: 12px;&quot;&gt;Иностранное производство&lt;/span&gt;&lt;br&gt;&lt;/p&gt;" style="vsdxID=58;fillColor=none;gradientColor=none;shape=stencil(nZBLDoAgDERP0z3SIyjew0SURgSD+Lu9kMZoXLhwN9O+tukAlrNpJg1SzDH4QW/URgNYgZTkjA4UkwJUgGXng+6DX1zLfmoymdXo17xh5zmRJ6Q42BWCfc2oJfdAr+Yv+AP9Cb7OJ3H/2JG1HNGz/84klThPVCc=);labelBackgroundColor=none;rounded=0;html=1;whiteSpace=wrap;fontStyle=2;fontFamily=Arial;align=center;fontSize=16;" parent="rFzxfalwFgXO4eg9ru58-133" vertex="1">
          <mxGeometry x="620" y="92" width="120" height="32" as="geometry" />
        </mxCell>
        <mxCell id="31" value="&lt;div style=&quot;font-size: 16px;&quot;&gt;2&lt;/div&gt;" style="verticalAlign=middle;align=center;vsdxID=59;fillColor=none;gradientColor=none;shape=stencil(nZBLDoAgDERP0z3SIyjew0SURgSD+Lu9kMZoXLhwN9O+tukAlrNpJg1SzDH4QW/URgNYgZTkjA4UkwJUgGXng+6DX1zLfmoymdXo17xh5zmRJ6Q42BWCfc2oJfdAr+Yv+AP9Cb7OJ3H/2JG1HNGz/84klThPVCc=);labelBackgroundColor=none;rounded=0;html=1;whiteSpace=wrap;spacingLeft=2;fontStyle=2;fontFamily=Arial;fontSize=16;" parent="rFzxfalwFgXO4eg9ru58-133" vertex="1">
          <mxGeometry y="124" width="79.9211" height="32" as="geometry" />
        </mxCell>
        <mxCell id="32" value="&lt;p class=&quot;MsoNormal&quot; style=&quot;margin: 0cm;&quot;&gt;Catalyst 8200-1N-&lt;span style=&quot;background-color: initial;&quot;&gt;4T&lt;/span&gt;&lt;/p&gt;" style="verticalAlign=middle;align=left;vsdxID=60;fillColor=none;gradientColor=none;shape=stencil(nZBLDoAgDERP0z3SIyjew0SURgSD+Lu9kMZoXLhwN9O+tukAlrNpJg1SzDH4QW/URgNYgZTkjA4UkwJUgGXng+6DX1zLfmoymdXo17xh5zmRJ6Q42BWCfc2oJfdAr+Yv+AP9Cb7OJ3H/2JG1HNGz/84klThPVCc=);labelBackgroundColor=none;rounded=0;html=1;whiteSpace=wrap;spacingLeft=2;fontStyle=2;fontFamily=Arial;fontSize=16;" parent="rFzxfalwFgXO4eg9ru58-133" vertex="1">
          <mxGeometry x="79" y="124" width="380" height="32" as="geometry" />
        </mxCell>
        <mxCell id="33" value="&lt;p style=&quot;margin: 0px; text-indent: 0px; direction: ltr; line-height: 90%;&quot;&gt;&lt;font style=&quot;font-size: 12px;&quot;&gt;Иностранное производство&lt;/font&gt;&lt;br style=&quot;font-size: 16px;&quot;&gt;&lt;/p&gt;" style="verticalAlign=middle;align=center;vsdxID=61;fillColor=none;gradientColor=none;shape=stencil(nZBLDoAgDERP0z3SIyjew0SURgSD+Lu9kMZoXLhwN9O+tukAlrNpJg1SzDH4QW/URgNYgZTkjA4UkwJUgGXng+6DX1zLfmoymdXo17xh5zmRJ6Q42BWCfc2oJfdAr+Yv+AP9Cb7OJ3H/2JG1HNGz/84klThPVCc=);labelBackgroundColor=none;rounded=0;html=1;whiteSpace=wrap;fontStyle=2;fontFamily=Arial;fontSize=16;" parent="rFzxfalwFgXO4eg9ru58-133" vertex="1">
          <mxGeometry x="620" y="124" width="120" height="32" as="geometry" />
        </mxCell>
        <mxCell id="34" value="3" style="vsdxID=62;fillColor=none;gradientColor=none;shape=stencil(nZBLDoAgDERP0z3SIyjew0SURgSD+Lu9kMZoXLhwN9O+tukAlrNpJg1SzDH4QW/URgNYgZTkjA4UkwJUgGXng+6DX1zLfmoymdXo17xh5zmRJ6Q42BWCfc2oJfdAr+Yv+AP9Cb7OJ3H/2JG1HNGz/84klThPVCc=);labelBackgroundColor=none;rounded=0;html=1;whiteSpace=wrap;fontStyle=2;fontFamily=Arial;align=center;fontSize=16;spacingLeft=2;" parent="rFzxfalwFgXO4eg9ru58-133" vertex="1">
          <mxGeometry y="156" width="79.9211" height="32" as="geometry" />
        </mxCell>
        <mxCell id="35" value="&lt;span style=&quot;color: rgb(0, 0, 0); font-family: Arial; font-style: italic; font-variant-ligatures: normal; font-variant-caps: normal; font-weight: 400; letter-spacing: normal; orphans: 2; text-align: center; text-indent: 0px; text-transform: none; widows: 2; word-spacing: 0px; -webkit-text-stroke-width: 0px; background-color: rgb(248, 249, 250); text-decoration-thickness: initial; text-decoration-style: initial; text-decoration-color: initial; float: none; display: inline !important;&quot;&gt;&lt;font style=&quot;font-size: 16px;&quot;&gt;Catalyst 9300-48P&lt;/font&gt;&lt;/span&gt;" style="vsdxID=63;fillColor=none;gradientColor=none;shape=stencil(nZBLDoAgDERP0z3SIyjew0SURgSD+Lu9kMZoXLhwN9O+tukAlrNpJg1SzDH4QW/URgNYgZTkjA4UkwJUgGXng+6DX1zLfmoymdXo17xh5zmRJ6Q42BWCfc2oJfdAr+Yv+AP9Cb7OJ3H/2JG1HNGz/84klThPVCc=);labelBackgroundColor=none;rounded=0;html=1;whiteSpace=wrap;fontFamily=Arial;align=left;spacingLeft=2;fontStyle=2;fontSize=16;" parent="rFzxfalwFgXO4eg9ru58-133" vertex="1">
          <mxGeometry x="80" y="156" width="380" height="32" as="geometry" />
        </mxCell>
        <mxCell id="36" value="&lt;p style=&quot;line-height: 90%;&quot;&gt;&lt;font style=&quot;font-size: 12px;&quot;&gt;Иностранное производство&lt;/font&gt;&lt;/p&gt;" style="vsdxID=64;fillColor=none;gradientColor=none;shape=stencil(nZBLDoAgDERP0z3SIyjew0SURgSD+Lu9kMZoXLhwN9O+tukAlrNpJg1SzDH4QW/URgNYgZTkjA4UkwJUgGXng+6DX1zLfmoymdXo17xh5zmRJ6Q42BWCfc2oJfdAr+Yv+AP9Cb7OJ3H/2JG1HNGz/84klThPVCc=);labelBackgroundColor=none;rounded=0;html=1;whiteSpace=wrap;fontStyle=2;fontFamily=Arial;align=center;fontSize=16;" parent="rFzxfalwFgXO4eg9ru58-133" vertex="1">
          <mxGeometry x="620" y="156" width="120" height="32" as="geometry" />
        </mxCell>
        <mxCell id="37" value="&lt;font style=&quot;font-size: 16px; color: rgb(0, 0, 0); direction: ltr; letter-spacing: 0px; line-height: 120%; opacity: 1;&quot;&gt;&lt;span style=&quot;font-size: 16px;&quot;&gt;4&lt;br style=&quot;font-size: 16px;&quot;&gt;&lt;/span&gt;&lt;/font&gt;" style="verticalAlign=middle;align=center;vsdxID=65;fillColor=none;gradientColor=none;shape=stencil(nZBLDoAgDERP0z3SIyjew0SURgSD+Lu9kMZoXLhwN9O+tukAlrNpJg1SzDH4QW/URgNYgZTkjA4UkwJUgGXng+6DX1zLfmoymdXo17xh5zmRJ6Q42BWCfc2oJfdAr+Yv+AP9Cb7OJ3H/2JG1HNGz/84klThPVCc=);labelBackgroundColor=none;rounded=0;html=1;whiteSpace=wrap;fontStyle=2;fontFamily=Arial;fontSize=16;spacingLeft=2;" parent="rFzxfalwFgXO4eg9ru58-133" vertex="1">
          <mxGeometry y="188" width="79.9211" height="32" as="geometry" />
        </mxCell>
        <mxCell id="38" value="&lt;div style=&quot;text-align: center;&quot;&gt;Cisco CBW140AC&lt;/div&gt;" style="verticalAlign=middle;align=left;vsdxID=66;fillColor=none;gradientColor=none;shape=stencil(nZBLDoAgDERP0z3SIyjew0SURgSD+Lu9kMZoXLhwN9O+tukAlrNpJg1SzDH4QW/URgNYgZTkjA4UkwJUgGXng+6DX1zLfmoymdXo17xh5zmRJ6Q42BWCfc2oJfdAr+Yv+AP9Cb7OJ3H/2JG1HNGz/84klThPVCc=);labelBackgroundColor=none;rounded=0;html=1;whiteSpace=wrap;fontFamily=Arial;fontStyle=2;fontSize=16;spacingLeft=2;" parent="rFzxfalwFgXO4eg9ru58-133" vertex="1">
          <mxGeometry x="80" y="188" width="380" height="32" as="geometry" />
        </mxCell>
        <mxCell id="40" value="" style="vsdxID=68;fillColor=none;gradientColor=none;shape=stencil(nZBLDoAgDERP0z3SIyjew0SURgSD+Lu9kMZoXLhwN9O+tukAlrNpJg1SzDH4QW/URgNYgZTkjA4UkwJUgGXng+6DX1zLfmoymdXo17xh5zmRJ6Q42BWCfc2oJfdAr+Yv+AP9Cb7OJ3H/2JG1HNGz/84klThPVCc=);labelBackgroundColor=none;rounded=0;html=1;whiteSpace=wrap;align=left;spacingLeft=2;fontStyle=2;fontFamily=Arial;fontSize=16;" parent="rFzxfalwFgXO4eg9ru58-133" vertex="1">
          <mxGeometry y="220" width="79.9211" height="32" as="geometry" />
        </mxCell>
        <mxCell id="41" value="" style="vsdxID=69;fillColor=none;gradientColor=none;shape=stencil(nZBLDoAgDERP0z3SIyjew0SURgSD+Lu9kMZoXLhwN9O+tukAlrNpJg1SzDH4QW/URgNYgZTkjA4UkwJUgGXng+6DX1zLfmoymdXo17xh5zmRJ6Q42BWCfc2oJfdAr+Yv+AP9Cb7OJ3H/2JG1HNGz/84klThPVCc=);labelBackgroundColor=none;rounded=0;html=1;whiteSpace=wrap;align=left;spacingLeft=2;fontStyle=2;fontFamily=Arial;fontSize=16;" parent="rFzxfalwFgXO4eg9ru58-133" vertex="1">
          <mxGeometry x="80" y="220" width="380" height="32" as="geometry" />
        </mxCell>
        <mxCell id="43" value="&lt;font style=&quot;font-size: 16px; color: rgb(0, 0, 0); direction: ltr; letter-spacing: 0px; line-height: 120%; opacity: 1;&quot;&gt;&lt;span style=&quot;font-size: 16px;&quot;&gt;&lt;br style=&quot;font-size: 16px;&quot;&gt;&lt;/span&gt;&lt;/font&gt;" style="verticalAlign=middle;align=left;vsdxID=71;fillColor=none;gradientColor=none;shape=stencil(nZBLDoAgDERP0z3SIyjew0SURgSD+Lu9kMZoXLhwN9O+tukAlrNpJg1SzDH4QW/URgNYgZTkjA4UkwJUgGXng+6DX1zLfmoymdXo17xh5zmRJ6Q42BWCfc2oJfdAr+Yv+AP9Cb7OJ3H/2JG1HNGz/84klThPVCc=);labelBackgroundColor=none;rounded=0;html=1;whiteSpace=wrap;fontStyle=2;fontFamily=Arial;fontSize=16;spacingLeft=2;" parent="rFzxfalwFgXO4eg9ru58-133" vertex="1">
          <mxGeometry y="252" width="79.9211" height="32" as="geometry" />
        </mxCell>
        <mxCell id="44" value="&lt;font style=&quot;font-size: 16px; color: rgb(0, 0, 0); direction: ltr; letter-spacing: 0px; line-height: 120%; opacity: 1;&quot;&gt;&lt;u style=&quot;border-color: var(--border-color); font-size: 19px;&quot;&gt;Устройства оконечные&lt;/u&gt;&lt;span style=&quot;font-size: 16px;&quot;&gt;&lt;br style=&quot;font-size: 16px;&quot;&gt;&lt;/span&gt;&lt;/font&gt;" style="verticalAlign=middle;align=left;vsdxID=72;fillColor=none;gradientColor=none;shape=stencil(nZBLDoAgDERP0z3SIyjew0SURgSD+Lu9kMZoXLhwN9O+tukAlrNpJg1SzDH4QW/URgNYgZTkjA4UkwJUgGXng+6DX1zLfmoymdXo17xh5zmRJ6Q42BWCfc2oJfdAr+Yv+AP9Cb7OJ3H/2JG1HNGz/84klThPVCc=);labelBackgroundColor=none;rounded=0;html=1;whiteSpace=wrap;spacingLeft=2;fontStyle=2;fontFamily=Arial;fontSize=16;" parent="rFzxfalwFgXO4eg9ru58-133" vertex="1">
          <mxGeometry x="80" y="252" width="380" height="32" as="geometry" />
        </mxCell>
        <mxCell id="46" value="5" style="vsdxID=74;fillColor=none;gradientColor=none;shape=stencil(nZBLDoAgDERP0z3SIyjew0SURgSD+Lu9kMZoXLhwN9O+tukAlrNpJg1SzDH4QW/URgNYgZTkjA4UkwJUgGXng+6DX1zLfmoymdXo17xh5zmRJ6Q42BWCfc2oJfdAr+Yv+AP9Cb7OJ3H/2JG1HNGz/84klThPVCc=);labelBackgroundColor=none;rounded=0;html=1;whiteSpace=wrap;fontStyle=2;fontFamily=Arial;align=center;fontSize=16;spacingLeft=2;" parent="rFzxfalwFgXO4eg9ru58-133" vertex="1">
          <mxGeometry y="284" width="79.9211" height="32" as="geometry" />
        </mxCell>
        <mxCell id="47" value="HP 1C7L8ES" style="vsdxID=75;fillColor=none;gradientColor=none;shape=stencil(nZBLDoAgDERP0z3SIyjew0SURgSD+Lu9kMZoXLhwN9O+tukAlrNpJg1SzDH4QW/URgNYgZTkjA4UkwJUgGXng+6DX1zLfmoymdXo17xh5zmRJ6Q42BWCfc2oJfdAr+Yv+AP9Cb7OJ3H/2JG1HNGz/84klThPVCc=);labelBackgroundColor=none;rounded=0;html=1;whiteSpace=wrap;fontStyle=2;fontFamily=Arial;align=left;fontSize=16;spacingLeft=2;" parent="rFzxfalwFgXO4eg9ru58-133" vertex="1">
          <mxGeometry x="80" y="284" width="380" height="32" as="geometry" />
        </mxCell>
        <mxCell id="49" value="6" style="verticalAlign=middle;align=center;vsdxID=77;fillColor=none;gradientColor=none;shape=stencil(nZBLDoAgDERP0z3SIyjew0SURgSD+Lu9kMZoXLhwN9O+tukAlrNpJg1SzDH4QW/URgNYgZTkjA4UkwJUgGXng+6DX1zLfmoymdXo17xh5zmRJ6Q42BWCfc2oJfdAr+Yv+AP9Cb7OJ3H/2JG1HNGz/84klThPVCc=);labelBackgroundColor=none;rounded=0;html=1;whiteSpace=wrap;spacingLeft=2;fontStyle=2;fontFamily=Arial;fontSize=16;" parent="rFzxfalwFgXO4eg9ru58-133" vertex="1">
          <mxGeometry y="316" width="79.9211" height="32" as="geometry" />
        </mxCell>
        <mxCell id="50" value="FK BY 13316" style="verticalAlign=middle;align=left;vsdxID=78;fillColor=none;gradientColor=none;shape=stencil(nZBLDoAgDERP0z3SIyjew0SURgSD+Lu9kMZoXLhwN9O+tukAlrNpJg1SzDH4QW/URgNYgZTkjA4UkwJUgGXng+6DX1zLfmoymdXo17xh5zmRJ6Q42BWCfc2oJfdAr+Yv+AP9Cb7OJ3H/2JG1HNGz/84klThPVCc=);labelBackgroundColor=none;rounded=0;html=1;whiteSpace=wrap;spacingLeft=2;fontStyle=2;fontFamily=Arial;fontSize=16;" parent="rFzxfalwFgXO4eg9ru58-133" vertex="1">
          <mxGeometry x="80" y="316" width="380" height="32" as="geometry" />
        </mxCell>
        <mxCell id="51" value="" style="verticalAlign=middle;align=center;vsdxID=79;fillColor=none;gradientColor=none;shape=stencil(nZBLDoAgDERP0z3SIyjew0SURgSD+Lu9kMZoXLhwN9O+tukAlrNpJg1SzDH4QW/URgNYgZTkjA4UkwJUgGXng+6DX1zLfmoymdXo17xh5zmRJ6Q42BWCfc2oJfdAr+Yv+AP9Cb7OJ3H/2JG1HNGz/84klThPVCc=);labelBackgroundColor=none;rounded=0;html=1;whiteSpace=wrap;fontStyle=2;fontFamily=Arial;fontSize=16;" parent="rFzxfalwFgXO4eg9ru58-133" vertex="1">
          <mxGeometry x="620" y="316" width="120" height="32" as="geometry" />
        </mxCell>
        <mxCell id="52" value="7" style="vsdxID=80;fillColor=none;gradientColor=none;shape=stencil(nZBLDoAgDERP0z3SIyjew0SURgSD+Lu9kMZoXLhwN9O+tukAlrNpJg1SzDH4QW/URgNYgZTkjA4UkwJUgGXng+6DX1zLfmoymdXo17xh5zmRJ6Q42BWCfc2oJfdAr+Yv+AP9Cb7OJ3H/2JG1HNGz/84klThPVCc=);labelBackgroundColor=none;rounded=0;html=1;whiteSpace=wrap;fontStyle=2;fontFamily=Arial;align=center;fontSize=16;spacingLeft=2;" parent="rFzxfalwFgXO4eg9ru58-133" vertex="1">
          <mxGeometry y="348" width="79.9211" height="32" as="geometry" />
        </mxCell>
        <mxCell id="54" style="vsdxID=82;fillColor=none;gradientColor=none;shape=stencil(nZBLDoAgDERP0z3SIyjew0SURgSD+Lu9kMZoXLhwN9O+tukAlrNpJg1SzDH4QW/URgNYgZTkjA4UkwJUgGXng+6DX1zLfmoymdXo17xh5zmRJ6Q42BWCfc2oJfdAr+Yv+AP9Cb7OJ3H/2JG1HNGz/84klThPVCc=);labelBackgroundColor=none;rounded=0;html=1;whiteSpace=wrap;fontStyle=2;fontFamily=Arial;align=center;fontSize=16;" parent="rFzxfalwFgXO4eg9ru58-133" vertex="1">
          <mxGeometry x="620" y="348" width="120" height="32" as="geometry" />
        </mxCell>
        <mxCell id="55" value="" style="verticalAlign=middle;align=left;vsdxID=83;fillColor=none;gradientColor=none;shape=stencil(nZBLDoAgDERP0z3SIyjew0SURgSD+Lu9kMZoXLhwN9O+tukAlrNpJg1SzDH4QW/URgNYgZTkjA4UkwJUgGXng+6DX1zLfmoymdXo17xh5zmRJ6Q42BWCfc2oJfdAr+Yv+AP9Cb7OJ3H/2JG1HNGz/84klThPVCc=);labelBackgroundColor=none;rounded=0;html=1;whiteSpace=wrap;fontStyle=2;fontFamily=Arial;fontSize=16;spacingLeft=2;" parent="rFzxfalwFgXO4eg9ru58-133" vertex="1">
          <mxGeometry y="380" width="79.9211" height="32" as="geometry" />
        </mxCell>
        <mxCell id="57" value="" style="verticalAlign=middle;align=center;vsdxID=85;fillColor=none;gradientColor=none;shape=stencil(nZBLDoAgDERP0z3SIyjew0SURgSD+Lu9kMZoXLhwN9O+tukAlrNpJg1SzDH4QW/URgNYgZTkjA4UkwJUgGXng+6DX1zLfmoymdXo17xh5zmRJ6Q42BWCfc2oJfdAr+Yv+AP9Cb7OJ3H/2JG1HNGz/84klThPVCc=);labelBackgroundColor=none;rounded=0;html=1;whiteSpace=wrap;fontStyle=2;fontFamily=Arial;fontSize=16;" parent="rFzxfalwFgXO4eg9ru58-133" vertex="1">
          <mxGeometry x="620" y="380" width="120" height="32" as="geometry" />
        </mxCell>
        <mxCell id="58" value="9" style="vsdxID=86;fillColor=none;gradientColor=none;shape=stencil(nZBLDoAgDERP0z3SIyjew0SURgSD+Lu9kMZoXLhwN9O+tukAlrNpJg1SzDH4QW/URgNYgZTkjA4UkwJUgGXng+6DX1zLfmoymdXo17xh5zmRJ6Q42BWCfc2oJfdAr+Yv+AP9Cb7OJ3H/2JG1HNGz/84klThPVCc=);labelBackgroundColor=none;rounded=0;html=1;whiteSpace=wrap;fontStyle=2;fontFamily=Arial;align=center;fontSize=16;spacingLeft=2;" parent="rFzxfalwFgXO4eg9ru58-133" vertex="1">
          <mxGeometry y="412" width="79.9211" height="32" as="geometry" />
        </mxCell>
        <mxCell id="59" value="&lt;div style=&quot;text-align: center;&quot;&gt;&lt;div&gt;Hikvision DS-&lt;span style=&quot;background-color: initial;&quot;&gt;7604NI-K1&lt;/span&gt;&lt;/div&gt;&lt;/div&gt;" style="vsdxID=87;fillColor=none;gradientColor=none;shape=stencil(nZBLDoAgDERP0z3SIyjew0SURgSD+Lu9kMZoXLhwN9O+tukAlrNpJg1SzDH4QW/URgNYgZTkjA4UkwJUgGXng+6DX1zLfmoymdXo17xh5zmRJ6Q42BWCfc2oJfdAr+Yv+AP9Cb7OJ3H/2JG1HNGz/84klThPVCc=);labelBackgroundColor=none;rounded=0;html=1;whiteSpace=wrap;align=left;spacingLeft=2;fontStyle=2;fontFamily=Arial;fontSize=16;" parent="rFzxfalwFgXO4eg9ru58-133" vertex="1">
          <mxGeometry x="80" y="412" width="380" height="32" as="geometry" />
        </mxCell>
        <mxCell id="60" value="" style="vsdxID=88;fillColor=none;gradientColor=none;shape=stencil(nZBLDoAgDERP0z3SIyjew0SURgSD+Lu9kMZoXLhwN9O+tukAlrNpJg1SzDH4QW/URgNYgZTkjA4UkwJUgGXng+6DX1zLfmoymdXo17xh5zmRJ6Q42BWCfc2oJfdAr+Yv+AP9Cb7OJ3H/2JG1HNGz/84klThPVCc=);labelBackgroundColor=none;rounded=0;html=1;whiteSpace=wrap;fontStyle=2;fontFamily=Arial;align=center;fontSize=16;" parent="rFzxfalwFgXO4eg9ru58-133" vertex="1">
          <mxGeometry x="620" y="412" width="120" height="32" as="geometry" />
        </mxCell>
        <mxCell id="61" value="" style="vsdxID=89;fillColor=none;gradientColor=none;shape=stencil(nZBLDoAgDERP0z3SIyjew0SURgSD+Lu9kMZoXLhwN9O+tukAlrNpJg1SzDH4QW/URgNYgZTkjA4UkwJUgGXng+6DX1zLfmoymdXo17xh5zmRJ6Q42BWCfc2oJfdAr+Yv+AP9Cb7OJ3H/2JG1HNGz/84klThPVCc=);labelBackgroundColor=none;rounded=0;html=1;whiteSpace=wrap;align=center;spacingLeft=2;fontStyle=2;fontFamily=Arial;fontSize=16;" parent="rFzxfalwFgXO4eg9ru58-133" vertex="1">
          <mxGeometry y="444" width="79.9211" height="32" as="geometry" />
        </mxCell>
        <mxCell id="63" style="vsdxID=91;fillColor=none;gradientColor=none;shape=stencil(nZBLDoAgDERP0z3SIyjew0SURgSD+Lu9kMZoXLhwN9O+tukAlrNpJg1SzDH4QW/URgNYgZTkjA4UkwJUgGXng+6DX1zLfmoymdXo17xh5zmRJ6Q42BWCfc2oJfdAr+Yv+AP9Cb7OJ3H/2JG1HNGz/84klThPVCc=);labelBackgroundColor=none;rounded=0;html=1;whiteSpace=wrap;fontStyle=2;fontFamily=Arial;align=center;fontSize=16;" parent="rFzxfalwFgXO4eg9ru58-133" vertex="1">
          <mxGeometry x="620" y="444" width="120" height="32" as="geometry" />
        </mxCell>
        <mxCell id="64" value="" style="vsdxID=92;fillColor=none;gradientColor=none;shape=stencil(nZBLDoAgDERP0z3SIyjew0SURgSD+Lu9kMZoXLhwN9O+tukAlrNpJg1SzDH4QW/URgNYgZTkjA4UkwJUgGXng+6DX1zLfmoymdXo17xh5zmRJ6Q42BWCfc2oJfdAr+Yv+AP9Cb7OJ3H/2JG1HNGz/84klThPVCc=);labelBackgroundColor=none;rounded=0;html=1;whiteSpace=wrap;fontStyle=2;fontFamily=Arial;align=center;fontSize=16;spacingLeft=2;" parent="rFzxfalwFgXO4eg9ru58-133" vertex="1">
          <mxGeometry y="476" width="79.9211" height="32" as="geometry" />
        </mxCell>
        <mxCell id="65" value="Canon LBP6030B" style="vsdxID=93;fillColor=none;gradientColor=none;shape=stencil(nZBLDoAgDERP0z3SIyjew0SURgSD+Lu9kMZoXLhwN9O+tukAlrNpJg1SzDH4QW/URgNYgZTkjA4UkwJUgGXng+6DX1zLfmoymdXo17xh5zmRJ6Q42BWCfc2oJfdAr+Yv+AP9Cb7OJ3H/2JG1HNGz/84klThPVCc=);labelBackgroundColor=none;rounded=0;html=1;whiteSpace=wrap;align=left;spacingLeft=2;fontStyle=2;fontFamily=Arial;fontSize=16;" parent="rFzxfalwFgXO4eg9ru58-133" vertex="1">
          <mxGeometry x="80" y="348" width="380" height="32" as="geometry" />
        </mxCell>
        <mxCell id="66" value="" style="vsdxID=94;fillColor=none;gradientColor=none;shape=stencil(nZBLDoAgDERP0z3SIyjew0SURgSD+Lu9kMZoXLhwN9O+tukAlrNpJg1SzDH4QW/URgNYgZTkjA4UkwJUgGXng+6DX1zLfmoymdXo17xh5zmRJ6Q42BWCfc2oJfdAr+Yv+AP9Cb7OJ3H/2JG1HNGz/84klThPVCc=);labelBackgroundColor=none;rounded=0;html=1;whiteSpace=wrap;fontStyle=2;fontFamily=Arial;align=center;fontSize=16;" parent="rFzxfalwFgXO4eg9ru58-133" vertex="1">
          <mxGeometry x="620" y="508" width="120" height="32" as="geometry" />
        </mxCell>
        <mxCell id="67" value="8" style="vsdxID=95;fillColor=none;gradientColor=none;shape=stencil(nZBLDoAgDERP0z3SIyjew0SURgSD+Lu9kMZoXLhwN9O+tukAlrNpJg1SzDH4QW/URgNYgZTkjA4UkwJUgGXng+6DX1zLfmoymdXo17xh5zmRJ6Q42BWCfc2oJfdAr+Yv+AP9Cb7OJ3H/2JG1HNGz/84klThPVCc=);labelBackgroundColor=none;rounded=0;html=1;whiteSpace=wrap;fontStyle=2;fontFamily=Arial;align=center;fontSize=16;spacingLeft=2;" parent="rFzxfalwFgXO4eg9ru58-133" vertex="1">
          <mxGeometry y="380" width="79.9211" height="32" as="geometry" />
        </mxCell>
        <mxCell id="69" value="" style="vsdxID=97;fillColor=none;gradientColor=none;shape=stencil(nZBLDoAgDERP0z3SIyjew0SURgSD+Lu9kMZoXLhwN9O+tukAlrNpJg1SzDH4QW/URgNYgZTkjA4UkwJUgGXng+6DX1zLfmoymdXo17xh5zmRJ6Q42BWCfc2oJfdAr+Yv+AP9Cb7OJ3H/2JG1HNGz/84klThPVCc=);labelBackgroundColor=none;rounded=0;html=1;whiteSpace=wrap;fontStyle=2;fontFamily=Arial;align=center;fontSize=16;" parent="rFzxfalwFgXO4eg9ru58-133" vertex="1">
          <mxGeometry x="620" y="380" width="120" height="32" as="geometry" />
        </mxCell>
        <mxCell id="73" value="12" style="vsdxID=101;fillColor=none;gradientColor=none;shape=stencil(nZBLDoAgDERP0z3SIyjew0SURgSD+Lu9kMZoXLhwN9O+tukAlrNpJg1SzDH4QW/URgNYgZTkjA4UkwJUgGXng+6DX1zLfmoymdXo17xh5zmRJ6Q42BWCfc2oJfdAr+Yv+AP9Cb7OJ3H/2JG1HNGz/84klThPVCc=);labelBackgroundColor=none;rounded=0;html=1;whiteSpace=wrap;fontStyle=2;fontFamily=Arial;align=center;fontSize=16;spacingLeft=2;" parent="rFzxfalwFgXO4eg9ru58-133" vertex="1">
          <mxGeometry y="572" width="79.9211" height="32" as="geometry" />
        </mxCell>
        <mxCell id="75" value="" style="vsdxID=103;fillColor=none;gradientColor=none;shape=stencil(nZBLDoAgDERP0z3SIyjew0SURgSD+Lu9kMZoXLhwN9O+tukAlrNpJg1SzDH4QW/URgNYgZTkjA4UkwJUgGXng+6DX1zLfmoymdXo17xh5zmRJ6Q42BWCfc2oJfdAr+Yv+AP9Cb7OJ3H/2JG1HNGz/84klThPVCc=);labelBackgroundColor=none;rounded=0;html=1;whiteSpace=wrap;align=center;fontStyle=2;fontFamily=Arial;fontSize=16;" parent="rFzxfalwFgXO4eg9ru58-133" vertex="1">
          <mxGeometry x="620" y="444" width="120" height="32" as="geometry" />
        </mxCell>
        <mxCell id="77" value="&amp;nbsp;" style="vsdxID=105;fillColor=none;gradientColor=none;shape=stencil(nZBLDoAgDERP0z3SIyjew0SURgSD+Lu9kMZoXLhwN9O+tukAlrNpJg1SzDH4QW/URgNYgZTkjA4UkwJUgGXng+6DX1zLfmoymdXo17xh5zmRJ6Q42BWCfc2oJfdAr+Yv+AP9Cb7OJ3H/2JG1HNGz/84klThPVCc=);labelBackgroundColor=none;rounded=0;html=1;whiteSpace=wrap;fontStyle=2;fontFamily=Arial;align=left;fontSize=16;spacingLeft=2;" parent="rFzxfalwFgXO4eg9ru58-133" vertex="1">
          <mxGeometry x="80" y="604" width="380" height="32" as="geometry" />
        </mxCell>
        <mxCell id="133" style="vsdxID=132;edgeStyle=none;startArrow=none;endArrow=none;startSize=5;endSize=5;strokeWidth=2;spacingTop=0;spacingBottom=0;spacingLeft=2;spacingRight=0;verticalAlign=middle;html=1;labelBackgroundColor=#ffffff;rounded=0;align=center;fontFamily=Arial;fontStyle=2" parent="rFzxfalwFgXO4eg9ru58-133" edge="1">
          <mxGeometry as="geometry">
            <Array as="points" />
            <mxPoint x="620" as="sourcePoint" />
            <mxPoint x="620" y="928" as="targetPoint" />
          </mxGeometry>
        </mxCell>
        <mxCell id="132" style="vsdxID=131;edgeStyle=none;startArrow=none;endArrow=none;startSize=5;endSize=5;strokeWidth=2;spacingTop=0;spacingBottom=0;spacingLeft=2;spacingRight=0;verticalAlign=middle;html=1;labelBackgroundColor=#ffffff;rounded=0;fontFamily=Arial;fontStyle=2" parent="rFzxfalwFgXO4eg9ru58-133" edge="1">
          <mxGeometry x="-160" as="geometry">
            <Array as="points" />
            <mxPoint x="80" as="sourcePoint" />
            <mxPoint x="80" y="928" as="targetPoint" />
          </mxGeometry>
        </mxCell>
        <mxCell id="78" value="" style="vsdxID=106;fillColor=none;gradientColor=none;shape=stencil(nZBLDoAgDERP0z3SIyjew0SURgSD+Lu9kMZoXLhwN9O+tukAlrNpJg1SzDH4QW/URgNYgZTkjA4UkwJUgGXng+6DX1zLfmoymdXo17xh5zmRJ6Q42BWCfc2oJfdAr+Yv+AP9Cb7OJ3H/2JG1HNGz/84klThPVCc=);labelBackgroundColor=none;rounded=0;html=1;whiteSpace=wrap;fontStyle=2;fontFamily=Arial;align=center;fontSize=16;" parent="rFzxfalwFgXO4eg9ru58-133" vertex="1">
          <mxGeometry x="620" y="604" width="120" height="32" as="geometry" />
        </mxCell>
        <mxCell id="79" value="" style="vsdxID=107;fillColor=none;gradientColor=none;shape=stencil(nZBLDoAgDERP0z3SIyjew0SURgSD+Lu9kMZoXLhwN9O+tukAlrNpJg1SzDH4QW/URgNYgZTkjA4UkwJUgGXng+6DX1zLfmoymdXo17xh5zmRJ6Q42BWCfc2oJfdAr+Yv+AP9Cb7OJ3H/2JG1HNGz/84klThPVCc=);labelBackgroundColor=none;rounded=0;html=1;whiteSpace=wrap;fontStyle=2;fontFamily=Arial;align=center;fontSize=16;spacingLeft=2;" parent="rFzxfalwFgXO4eg9ru58-133" vertex="1">
          <mxGeometry y="636" width="79.9211" height="32" as="geometry" />
        </mxCell>
        <mxCell id="80" value="&amp;nbsp;" style="vsdxID=108;fillColor=none;gradientColor=none;shape=stencil(nZBLDoAgDERP0z3SIyjew0SURgSD+Lu9kMZoXLhwN9O+tukAlrNpJg1SzDH4QW/URgNYgZTkjA4UkwJUgGXng+6DX1zLfmoymdXo17xh5zmRJ6Q42BWCfc2oJfdAr+Yv+AP9Cb7OJ3H/2JG1HNGz/84klThPVCc=);labelBackgroundColor=none;rounded=0;html=1;whiteSpace=wrap;fontStyle=2;fontFamily=Arial;align=left;fontSize=16;spacingLeft=2;" parent="rFzxfalwFgXO4eg9ru58-133" vertex="1">
          <mxGeometry x="80" y="636" width="380" height="32" as="geometry" />
        </mxCell>
        <mxCell id="81" style="vsdxID=109;fillColor=none;gradientColor=none;shape=stencil(nZBLDoAgDERP0z3SIyjew0SURgSD+Lu9kMZoXLhwN9O+tukAlrNpJg1SzDH4QW/URgNYgZTkjA4UkwJUgGXng+6DX1zLfmoymdXo17xh5zmRJ6Q42BWCfc2oJfdAr+Yv+AP9Cb7OJ3H/2JG1HNGz/84klThPVCc=);labelBackgroundColor=none;rounded=0;html=1;whiteSpace=wrap;fontStyle=2;fontFamily=Arial;align=center;fontSize=16;" parent="rFzxfalwFgXO4eg9ru58-133" vertex="1">
          <mxGeometry x="620" y="636" width="120" height="32" as="geometry" />
        </mxCell>
        <mxCell id="82" value="&amp;nbsp;" style="vsdxID=110;fillColor=none;gradientColor=none;shape=stencil(nZBLDoAgDERP0z3SIyjew0SURgSD+Lu9kMZoXLhwN9O+tukAlrNpJg1SzDH4QW/URgNYgZTkjA4UkwJUgGXng+6DX1zLfmoymdXo17xh5zmRJ6Q42BWCfc2oJfdAr+Yv+AP9Cb7OJ3H/2JG1HNGz/84klThPVCc=);labelBackgroundColor=none;rounded=0;html=1;whiteSpace=wrap;fontStyle=2;fontFamily=Arial;align=center;fontSize=16;spacingLeft=2;" parent="rFzxfalwFgXO4eg9ru58-133" vertex="1">
          <mxGeometry y="668" width="79.9211" height="32" as="geometry" />
        </mxCell>
        <mxCell id="83" value="&amp;nbsp;" style="vsdxID=111;fillColor=none;gradientColor=none;shape=stencil(nZBLDoAgDERP0z3SIyjew0SURgSD+Lu9kMZoXLhwN9O+tukAlrNpJg1SzDH4QW/URgNYgZTkjA4UkwJUgGXng+6DX1zLfmoymdXo17xh5zmRJ6Q42BWCfc2oJfdAr+Yv+AP9Cb7OJ3H/2JG1HNGz/84klThPVCc=);labelBackgroundColor=none;rounded=0;html=1;whiteSpace=wrap;fontStyle=2;fontFamily=Arial;align=left;fontSize=16;spacingLeft=2;" parent="rFzxfalwFgXO4eg9ru58-133" vertex="1">
          <mxGeometry x="80" y="668" width="380" height="32" as="geometry" />
        </mxCell>
        <mxCell id="84" value="" style="vsdxID=112;fillColor=none;gradientColor=none;shape=stencil(nZBLDoAgDERP0z3SIyjew0SURgSD+Lu9kMZoXLhwN9O+tukAlrNpJg1SzDH4QW/URgNYgZTkjA4UkwJUgGXng+6DX1zLfmoymdXo17xh5zmRJ6Q42BWCfc2oJfdAr+Yv+AP9Cb7OJ3H/2JG1HNGz/84klThPVCc=);labelBackgroundColor=none;rounded=0;html=1;whiteSpace=wrap;fontStyle=2;fontFamily=Arial;align=center;fontSize=16;" parent="rFzxfalwFgXO4eg9ru58-133" vertex="1">
          <mxGeometry x="620" y="668" width="120" height="32" as="geometry" />
        </mxCell>
        <mxCell id="85" value="" style="vsdxID=113;fillColor=none;gradientColor=none;shape=stencil(nZBLDoAgDERP0z3SIyjew0SURgSD+Lu9kMZoXLhwN9O+tukAlrNpJg1SzDH4QW/URgNYgZTkjA4UkwJUgGXng+6DX1zLfmoymdXo17xh5zmRJ6Q42BWCfc2oJfdAr+Yv+AP9Cb7OJ3H/2JG1HNGz/84klThPVCc=);labelBackgroundColor=none;rounded=0;html=1;whiteSpace=wrap;fontStyle=2;fontFamily=Arial;align=center;fontSize=16;spacingLeft=2;" parent="rFzxfalwFgXO4eg9ru58-133" vertex="1">
          <mxGeometry y="700" width="79.9211" height="32" as="geometry" />
        </mxCell>
        <mxCell id="86" value="" style="vsdxID=114;fillColor=none;gradientColor=none;shape=stencil(nZBLDoAgDERP0z3SIyjew0SURgSD+Lu9kMZoXLhwN9O+tukAlrNpJg1SzDH4QW/URgNYgZTkjA4UkwJUgGXng+6DX1zLfmoymdXo17xh5zmRJ6Q42BWCfc2oJfdAr+Yv+AP9Cb7OJ3H/2JG1HNGz/84klThPVCc=);labelBackgroundColor=none;rounded=0;html=1;whiteSpace=wrap;fontStyle=2;fontFamily=Arial;align=left;fontSize=16;spacingLeft=2;" parent="rFzxfalwFgXO4eg9ru58-133" vertex="1">
          <mxGeometry x="80" y="700" width="380" height="32" as="geometry" />
        </mxCell>
        <mxCell id="87" style="vsdxID=115;fillColor=none;gradientColor=none;shape=stencil(nZBLDoAgDERP0z3SIyjew0SURgSD+Lu9kMZoXLhwN9O+tukAlrNpJg1SzDH4QW/URgNYgZTkjA4UkwJUgGXng+6DX1zLfmoymdXo17xh5zmRJ6Q42BWCfc2oJfdAr+Yv+AP9Cb7OJ3H/2JG1HNGz/84klThPVCc=);labelBackgroundColor=none;rounded=0;html=1;whiteSpace=wrap;fontStyle=2;fontFamily=Arial;align=center;fontSize=16;" parent="rFzxfalwFgXO4eg9ru58-133" vertex="1">
          <mxGeometry x="620" y="700" width="120" height="32" as="geometry" />
        </mxCell>
        <mxCell id="88" style="vsdxID=116;fillColor=none;gradientColor=none;shape=stencil(nZBLDoAgDERP0z3SIyjew0SURgSD+Lu9kMZoXLhwN9O+tukAlrNpJg1SzDH4QW/URgNYgZTkjA4UkwJUgGXng+6DX1zLfmoymdXo17xh5zmRJ6Q42BWCfc2oJfdAr+Yv+AP9Cb7OJ3H/2JG1HNGz/84klThPVCc=);labelBackgroundColor=none;rounded=0;html=1;whiteSpace=wrap;fontStyle=2;fontFamily=Arial;align=left;fontSize=16;spacingLeft=2;" parent="rFzxfalwFgXO4eg9ru58-133" vertex="1">
          <mxGeometry y="732" width="79.9211" height="32" as="geometry" />
        </mxCell>
        <mxCell id="90" style="vsdxID=118;fillColor=none;gradientColor=none;shape=stencil(nZBLDoAgDERP0z3SIyjew0SURgSD+Lu9kMZoXLhwN9O+tukAlrNpJg1SzDH4QW/URgNYgZTkjA4UkwJUgGXng+6DX1zLfmoymdXo17xh5zmRJ6Q42BWCfc2oJfdAr+Yv+AP9Cb7OJ3H/2JG1HNGz/84klThPVCc=);labelBackgroundColor=none;rounded=0;html=1;whiteSpace=wrap;fontStyle=2;fontFamily=Arial;align=center;fontSize=16;" parent="rFzxfalwFgXO4eg9ru58-133" vertex="1">
          <mxGeometry x="620" y="732" width="120" height="32" as="geometry" />
        </mxCell>
        <mxCell id="92" value="" style="vsdxID=120;fillColor=none;gradientColor=none;shape=stencil(nZBLDoAgDERP0z3SIyjew0SURgSD+Lu9kMZoXLhwN9O+tukAlrNpJg1SzDH4QW/URgNYgZTkjA4UkwJUgGXng+6DX1zLfmoymdXo17xh5zmRJ6Q42BWCfc2oJfdAr+Yv+AP9Cb7OJ3H/2JG1HNGz/84klThPVCc=);labelBackgroundColor=none;rounded=0;html=1;whiteSpace=wrap;fontStyle=2;fontFamily=Arial;align=left;fontSize=16;spacingLeft=2;" parent="rFzxfalwFgXO4eg9ru58-133" vertex="1">
          <mxGeometry x="80" y="764" width="380" height="32" as="geometry" />
        </mxCell>
        <mxCell id="93" value="" style="vsdxID=121;fillColor=none;gradientColor=none;shape=stencil(nZBLDoAgDERP0z3SIyjew0SURgSD+Lu9kMZoXLhwN9O+tukAlrNpJg1SzDH4QW/URgNYgZTkjA4UkwJUgGXng+6DX1zLfmoymdXo17xh5zmRJ6Q42BWCfc2oJfdAr+Yv+AP9Cb7OJ3H/2JG1HNGz/84klThPVCc=);labelBackgroundColor=none;rounded=0;html=1;whiteSpace=wrap;fontStyle=2;fontFamily=Arial;align=center;fontSize=16;" parent="rFzxfalwFgXO4eg9ru58-133" vertex="1">
          <mxGeometry x="620" y="764" width="120" height="32" as="geometry" />
        </mxCell>
        <mxCell id="94" style="vsdxID=122;fillColor=none;gradientColor=none;shape=stencil(nZBLDoAgDERP0z3SIyjew0SURgSD+Lu9kMZoXLhwN9O+tukAlrNpJg1SzDH4QW/URgNYgZTkjA4UkwJUgGXng+6DX1zLfmoymdXo17xh5zmRJ6Q42BWCfc2oJfdAr+Yv+AP9Cb7OJ3H/2JG1HNGz/84klThPVCc=);labelBackgroundColor=none;rounded=0;html=1;whiteSpace=wrap;fontStyle=2;fontFamily=Arial;align=left;fontSize=16;spacingLeft=2;" parent="rFzxfalwFgXO4eg9ru58-133" vertex="1">
          <mxGeometry y="796" width="79.9211" height="32" as="geometry" />
        </mxCell>
        <mxCell id="95" value="" style="vsdxID=123;fillColor=none;gradientColor=none;shape=stencil(nZBLDoAgDERP0z3SIyjew0SURgSD+Lu9kMZoXLhwN9O+tukAlrNpJg1SzDH4QW/URgNYgZTkjA4UkwJUgGXng+6DX1zLfmoymdXo17xh5zmRJ6Q42BWCfc2oJfdAr+Yv+AP9Cb7OJ3H/2JG1HNGz/84klThPVCc=);labelBackgroundColor=none;rounded=0;html=1;whiteSpace=wrap;fontStyle=2;fontFamily=Arial;align=left;fontSize=16;spacingLeft=2;" parent="rFzxfalwFgXO4eg9ru58-133" vertex="1">
          <mxGeometry x="80" y="796" width="380" height="32" as="geometry" />
        </mxCell>
        <mxCell id="96" style="vsdxID=124;fillColor=none;gradientColor=none;shape=stencil(nZBLDoAgDERP0z3SIyjew0SURgSD+Lu9kMZoXLhwN9O+tukAlrNpJg1SzDH4QW/URgNYgZTkjA4UkwJUgGXng+6DX1zLfmoymdXo17xh5zmRJ6Q42BWCfc2oJfdAr+Yv+AP9Cb7OJ3H/2JG1HNGz/84klThPVCc=);labelBackgroundColor=none;rounded=0;html=1;whiteSpace=wrap;fontStyle=2;fontFamily=Arial;align=center;fontSize=16;" parent="rFzxfalwFgXO4eg9ru58-133" vertex="1">
          <mxGeometry x="620" y="796" width="120" height="32" as="geometry" />
        </mxCell>
        <mxCell id="97" style="vsdxID=125;fillColor=none;gradientColor=none;shape=stencil(nZBLDoAgDERP0z3SIyjew0SURgSD+Lu9kMZoXLhwN9O+tukAlrNpJg1SzDH4QW/URgNYgZTkjA4UkwJUgGXng+6DX1zLfmoymdXo17xh5zmRJ6Q42BWCfc2oJfdAr+Yv+AP9Cb7OJ3H/2JG1HNGz/84klThPVCc=);labelBackgroundColor=none;rounded=0;html=1;whiteSpace=wrap;fontStyle=2;fontFamily=Arial;align=left;fontSize=16;spacingLeft=2;" parent="rFzxfalwFgXO4eg9ru58-133" vertex="1">
          <mxGeometry y="828" width="79.9211" height="32" as="geometry" />
        </mxCell>
        <mxCell id="98" style="vsdxID=126;fillColor=none;gradientColor=none;shape=stencil(nZBLDoAgDERP0z3SIyjew0SURgSD+Lu9kMZoXLhwN9O+tukAlrNpJg1SzDH4QW/URgNYgZTkjA4UkwJUgGXng+6DX1zLfmoymdXo17xh5zmRJ6Q42BWCfc2oJfdAr+Yv+AP9Cb7OJ3H/2JG1HNGz/84klThPVCc=);labelBackgroundColor=none;rounded=0;html=1;whiteSpace=wrap;fontStyle=2;fontFamily=Arial;align=left;fontSize=16;spacingLeft=2;" parent="rFzxfalwFgXO4eg9ru58-133" vertex="1">
          <mxGeometry x="80" y="828" width="380" height="32" as="geometry" />
        </mxCell>
        <mxCell id="99" style="vsdxID=127;fillColor=none;gradientColor=none;shape=stencil(nZBLDoAgDERP0z3SIyjew0SURgSD+Lu9kMZoXLhwN9O+tukAlrNpJg1SzDH4QW/URgNYgZTkjA4UkwJUgGXng+6DX1zLfmoymdXo17xh5zmRJ6Q42BWCfc2oJfdAr+Yv+AP9Cb7OJ3H/2JG1HNGz/84klThPVCc=);labelBackgroundColor=none;rounded=0;html=1;whiteSpace=wrap;fontStyle=2;fontFamily=Arial;align=center;fontSize=16;" parent="rFzxfalwFgXO4eg9ru58-133" vertex="1">
          <mxGeometry x="620" y="828" width="120" height="32" as="geometry" />
        </mxCell>
        <mxCell id="100" style="vsdxID=128;fillColor=none;gradientColor=none;shape=stencil(nZBLDoAgDERP0z3SIyjew0SURgSD+Lu9kMZoXLhwN9O+tukAlrNpJg1SzDH4QW/URgNYgZTkjA4UkwJUgGXng+6DX1zLfmoymdXo17xh5zmRJ6Q42BWCfc2oJfdAr+Yv+AP9Cb7OJ3H/2JG1HNGz/84klThPVCc=);labelBackgroundColor=none;rounded=0;html=1;whiteSpace=wrap;fontStyle=2;fontFamily=Arial;align=left;fontSize=16;spacingLeft=2;" parent="rFzxfalwFgXO4eg9ru58-133" vertex="1">
          <mxGeometry y="860" width="79.9211" height="32" as="geometry" />
        </mxCell>
        <mxCell id="101" style="vsdxID=129;fillColor=none;gradientColor=none;shape=stencil(nZBLDoAgDERP0z3SIyjew0SURgSD+Lu9kMZoXLhwN9O+tukAlrNpJg1SzDH4QW/URgNYgZTkjA4UkwJUgGXng+6DX1zLfmoymdXo17xh5zmRJ6Q42BWCfc2oJfdAr+Yv+AP9Cb7OJ3H/2JG1HNGz/84klThPVCc=);labelBackgroundColor=none;rounded=0;html=1;whiteSpace=wrap;fontStyle=2;fontFamily=Arial;align=left;fontSize=16;spacingLeft=2;" parent="rFzxfalwFgXO4eg9ru58-133" vertex="1">
          <mxGeometry x="80" y="860" width="380" height="32" as="geometry" />
        </mxCell>
        <mxCell id="102" style="vsdxID=130;fillColor=none;gradientColor=none;shape=stencil(nZBLDoAgDERP0z3SIyjew0SURgSD+Lu9kMZoXLhwN9O+tukAlrNpJg1SzDH4QW/URgNYgZTkjA4UkwJUgGXng+6DX1zLfmoymdXo17xh5zmRJ6Q42BWCfc2oJfdAr+Yv+AP9Cb7OJ3H/2JG1HNGz/84klThPVCc=);labelBackgroundColor=none;rounded=0;html=1;whiteSpace=wrap;fontStyle=2;fontFamily=Arial;align=center;fontSize=16;" parent="rFzxfalwFgXO4eg9ru58-133" vertex="1">
          <mxGeometry x="620" y="860" width="120" height="32" as="geometry" />
        </mxCell>
        <mxCell id="103" style="vsdxID=1;edgeStyle=none;startArrow=none;endArrow=none;startSize=5;endSize=5;strokeWidth=4;spacingTop=0;spacingBottom=0;spacingLeft=0;spacingRight=0;verticalAlign=middle;html=1;labelBackgroundColor=#ffffff;rounded=0;fontFamily=Arial;fontStyle=2" parent="rFzxfalwFgXO4eg9ru58-133" edge="1">
          <mxGeometry as="geometry">
            <mxPoint as="offset" />
            <Array as="points" />
            <mxPoint y="1148" as="sourcePoint" />
            <mxPoint x="740" y="1148" as="targetPoint" />
          </mxGeometry>
        </mxCell>
        <mxCell id="104" style="vsdxID=2;edgeStyle=none;startArrow=none;endArrow=none;startSize=5;endSize=5;strokeWidth=4;spacingTop=0;spacingBottom=0;spacingLeft=0;spacingRight=0;verticalAlign=middle;html=1;labelBackgroundColor=#ffffff;rounded=0;fontFamily=Arial;fontStyle=2" parent="rFzxfalwFgXO4eg9ru58-133" edge="1">
          <mxGeometry as="geometry">
            <Array as="points" />
            <mxPoint x="740" y="1148" as="sourcePoint" />
            <mxPoint x="740" as="targetPoint" />
          </mxGeometry>
        </mxCell>
        <mxCell id="105" style="vsdxID=3;edgeStyle=none;startArrow=none;endArrow=none;startSize=5;endSize=5;strokeWidth=4;spacingTop=0;spacingBottom=0;spacingLeft=0;spacingRight=0;verticalAlign=middle;html=1;labelBackgroundColor=#ffffff;rounded=0;fontStyle=2;fontFamily=Arial;align=left;" parent="rFzxfalwFgXO4eg9ru58-133" edge="1">
          <mxGeometry as="geometry">
            <Array as="points" />
            <mxPoint x="740" as="sourcePoint" />
            <mxPoint as="targetPoint" />
          </mxGeometry>
        </mxCell>
        <mxCell id="106" style="vsdxID=4;edgeStyle=none;startArrow=none;endArrow=none;startSize=5;endSize=5;strokeWidth=4;spacingTop=0;spacingBottom=0;spacingLeft=0;spacingRight=0;verticalAlign=middle;html=1;labelBackgroundColor=#ffffff;rounded=0;fontFamily=Arial;fontStyle=2" parent="rFzxfalwFgXO4eg9ru58-133" edge="1">
          <mxGeometry as="geometry">
            <Array as="points" />
            <mxPoint as="sourcePoint" />
            <mxPoint y="1148" as="targetPoint" />
          </mxGeometry>
        </mxCell>
        <mxCell id="6LQt10_kdTzjlK993K9d-135" value="Hikvision DS-&lt;span style=&quot;border-color: var(--border-color); text-align: center; background-color: initial;&quot;&gt;2CD2345G0P-I&lt;/span&gt;" style="vsdxID=102;fillColor=none;gradientColor=none;shape=stencil(nZBLDoAgDERP0z3SIyjew0SURgSD+Lu9kMZoXLhwN9O+tukAlrNpJg1SzDH4QW/URgNYgZTkjA4UkwJUgGXng+6DX1zLfmoymdXo17xh5zmRJ6Q42BWCfc2oJfdAr+Yv+AP9Cb7OJ3H/2JG1HNGz/84klThPVCc=);labelBackgroundColor=none;rounded=0;html=1;whiteSpace=wrap;fontStyle=2;fontFamily=Arial;align=left;fontSize=16;spacingLeft=2;" parent="rFzxfalwFgXO4eg9ru58-133" vertex="1">
          <mxGeometry x="80" y="380" width="380" height="32" as="geometry" />
        </mxCell>
        <mxCell id="1hy_tLkAstv8IwgJfpOn-223" value="&lt;font style=&quot;font-size: 16px; color: rgb(0, 0, 0); direction: ltr; letter-spacing: 0px; line-height: 120%; opacity: 1;&quot;&gt;&lt;span style=&quot;font-size: 16px;&quot;&gt;&lt;br style=&quot;font-size: 16px;&quot;&gt;&lt;/span&gt;&lt;/font&gt;" style="verticalAlign=middle;align=center;vsdxID=67;fillColor=none;gradientColor=none;shape=stencil(nZBLDoAgDERP0z3SIyjew0SURgSD+Lu9kMZoXLhwN9O+tukAlrNpJg1SzDH4QW/URgNYgZTkjA4UkwJUgGXng+6DX1zLfmoymdXo17xh5zmRJ6Q42BWCfc2oJfdAr+Yv+AP9Cb7OJ3H/2JG1HNGz/84klThPVCc=);labelBackgroundColor=none;rounded=0;html=1;whiteSpace=wrap;fontStyle=2;fontFamily=Arial;fontSize=16;" parent="rFzxfalwFgXO4eg9ru58-133" vertex="1">
          <mxGeometry x="620" y="220" width="120" height="32" as="geometry" />
        </mxCell>
        <mxCell id="QeMB5MlL0QBIPOY0YRtc-135" value="&lt;font style=&quot;font-size: 16px; color: rgb(0, 0, 0); direction: ltr; letter-spacing: 0px; line-height: 120%; opacity: 1;&quot;&gt;&lt;span style=&quot;font-size: 16px;&quot;&gt;&lt;br style=&quot;font-size: 16px;&quot;&gt;&lt;/span&gt;&lt;/font&gt;" style="verticalAlign=middle;align=center;vsdxID=67;fillColor=none;gradientColor=none;shape=stencil(nZBLDoAgDERP0z3SIyjew0SURgSD+Lu9kMZoXLhwN9O+tukAlrNpJg1SzDH4QW/URgNYgZTkjA4UkwJUgGXng+6DX1zLfmoymdXo17xh5zmRJ6Q42BWCfc2oJfdAr+Yv+AP9Cb7OJ3H/2JG1HNGz/84klThPVCc=);labelBackgroundColor=none;rounded=0;html=1;whiteSpace=wrap;fontStyle=2;fontFamily=Arial;fontSize=16;" parent="rFzxfalwFgXO4eg9ru58-133" vertex="1">
          <mxGeometry x="620" y="252" width="120" height="32" as="geometry" />
        </mxCell>
        <mxCell id="QeMB5MlL0QBIPOY0YRtc-139" value="11" style="vsdxID=101;fillColor=none;gradientColor=none;shape=stencil(nZBLDoAgDERP0z3SIyjew0SURgSD+Lu9kMZoXLhwN9O+tukAlrNpJg1SzDH4QW/URgNYgZTkjA4UkwJUgGXng+6DX1zLfmoymdXo17xh5zmRJ6Q42BWCfc2oJfdAr+Yv+AP9Cb7OJ3H/2JG1HNGz/84klThPVCc=);labelBackgroundColor=none;rounded=0;html=1;whiteSpace=wrap;fontStyle=2;fontFamily=Arial;align=center;fontSize=16;spacingLeft=2;" parent="rFzxfalwFgXO4eg9ru58-133" vertex="1">
          <mxGeometry y="540" width="79.9211" height="32" as="geometry" />
        </mxCell>
        <mxCell id="QeMB5MlL0QBIPOY0YRtc-140" value="&lt;u style=&quot;border-color: var(--border-color); font-size: 19px;&quot;&gt;Расходные материалы&lt;/u&gt;" style="vsdxID=105;fillColor=none;gradientColor=none;shape=stencil(nZBLDoAgDERP0z3SIyjew0SURgSD+Lu9kMZoXLhwN9O+tukAlrNpJg1SzDH4QW/URgNYgZTkjA4UkwJUgGXng+6DX1zLfmoymdXo17xh5zmRJ6Q42BWCfc2oJfdAr+Yv+AP9Cb7OJ3H/2JG1HNGz/84klThPVCc=);labelBackgroundColor=none;rounded=0;html=1;whiteSpace=wrap;align=left;spacingLeft=2;fontStyle=2;fontFamily=Arial;fontSize=16;" parent="rFzxfalwFgXO4eg9ru58-133" vertex="1">
          <mxGeometry x="80" y="476" width="380" height="32" as="geometry" />
        </mxCell>
        <mxCell id="QeMB5MlL0QBIPOY0YRtc-141" value="&lt;div style=&quot;text-align: center;&quot;&gt;&lt;span style=&quot;background-color: initial;&quot;&gt;Розетка RJ-45&amp;nbsp;&lt;/span&gt;&lt;span style=&quot;background-color: initial;&quot;&gt;Leg 753943, кат. 6&lt;/span&gt;&lt;/div&gt;" style="vsdxID=108;fillColor=none;gradientColor=none;shape=stencil(nZBLDoAgDERP0z3SIyjew0SURgSD+Lu9kMZoXLhwN9O+tukAlrNpJg1SzDH4QW/URgNYgZTkjA4UkwJUgGXng+6DX1zLfmoymdXo17xh5zmRJ6Q42BWCfc2oJfdAr+Yv+AP9Cb7OJ3H/2JG1HNGz/84klThPVCc=);labelBackgroundColor=none;rounded=0;html=1;whiteSpace=wrap;fontStyle=2;fontFamily=Arial;align=left;spacingLeft=2;fontSize=16;" parent="rFzxfalwFgXO4eg9ru58-133" vertex="1">
          <mxGeometry x="80" y="508" width="380" height="32" as="geometry" />
        </mxCell>
        <mxCell id="QeMB5MlL0QBIPOY0YRtc-142" value="Коннектор&amp;nbsp;RJ-45 категории 6 упаковка 10 шт." style="vsdxID=111;fillColor=none;gradientColor=none;shape=stencil(nZBLDoAgDERP0z3SIyjew0SURgSD+Lu9kMZoXLhwN9O+tukAlrNpJg1SzDH4QW/URgNYgZTkjA4UkwJUgGXng+6DX1zLfmoymdXo17xh5zmRJ6Q42BWCfc2oJfdAr+Yv+AP9Cb7OJ3H/2JG1HNGz/84klThPVCc=);labelBackgroundColor=none;rounded=0;html=1;whiteSpace=wrap;fontStyle=2;fontFamily=Arial;align=left;fontSize=16;spacingLeft=2;" parent="rFzxfalwFgXO4eg9ru58-133" vertex="1">
          <mxGeometry x="80" y="540" width="380" height="32" as="geometry" />
        </mxCell>
        <mxCell id="QeMB5MlL0QBIPOY0YRtc-143" value="Кабель витая пара UTP cat. 6, 500 м." style="vsdxID=114;fillColor=none;gradientColor=none;shape=stencil(nZBLDoAgDERP0z3SIyjew0SURgSD+Lu9kMZoXLhwN9O+tukAlrNpJg1SzDH4QW/URgNYgZTkjA4UkwJUgGXng+6DX1zLfmoymdXo17xh5zmRJ6Q42BWCfc2oJfdAr+Yv+AP9Cb7OJ3H/2JG1HNGz/84klThPVCc=);labelBackgroundColor=none;rounded=0;html=1;whiteSpace=wrap;fontStyle=2;fontFamily=Arial;align=left;fontSize=16;spacingLeft=2;" parent="rFzxfalwFgXO4eg9ru58-133" vertex="1">
          <mxGeometry x="79" y="572" width="381" height="32" as="geometry" />
        </mxCell>
        <mxCell id="QeMB5MlL0QBIPOY0YRtc-144" value="" style="vsdxID=106;fillColor=none;gradientColor=none;shape=stencil(nZBLDoAgDERP0z3SIyjew0SURgSD+Lu9kMZoXLhwN9O+tukAlrNpJg1SzDH4QW/URgNYgZTkjA4UkwJUgGXng+6DX1zLfmoymdXo17xh5zmRJ6Q42BWCfc2oJfdAr+Yv+AP9Cb7OJ3H/2JG1HNGz/84klThPVCc=);labelBackgroundColor=none;rounded=0;html=1;whiteSpace=wrap;fontStyle=2;fontFamily=Arial;align=center;fontSize=16;" parent="rFzxfalwFgXO4eg9ru58-133" vertex="1">
          <mxGeometry x="620" y="540" width="120" height="32" as="geometry" />
        </mxCell>
        <mxCell id="QeMB5MlL0QBIPOY0YRtc-145" value="" style="vsdxID=109;fillColor=none;gradientColor=none;shape=stencil(nZBLDoAgDERP0z3SIyjew0SURgSD+Lu9kMZoXLhwN9O+tukAlrNpJg1SzDH4QW/URgNYgZTkjA4UkwJUgGXng+6DX1zLfmoymdXo17xh5zmRJ6Q42BWCfc2oJfdAr+Yv+AP9Cb7OJ3H/2JG1HNGz/84klThPVCc=);labelBackgroundColor=none;rounded=0;html=1;whiteSpace=wrap;fontStyle=2;fontFamily=Arial;align=center;fontSize=16;" parent="rFzxfalwFgXO4eg9ru58-133" vertex="1">
          <mxGeometry x="620" y="572" width="120" height="32" as="geometry" />
        </mxCell>
        <mxCell id="KuO2uaz0X1CUAutbRu9o-134" value="M-1" style="vsdxID=58;fillColor=none;gradientColor=none;shape=stencil(nZBLDoAgDERP0z3SIyjew0SURgSD+Lu9kMZoXLhwN9O+tukAlrNpJg1SzDH4QW/URgNYgZTkjA4UkwJUgGXng+6DX1zLfmoymdXo17xh5zmRJ6Q42BWCfc2oJfdAr+Yv+AP9Cb7OJ3H/2JG1HNGz/84klThPVCc=);labelBackgroundColor=none;rounded=0;html=1;whiteSpace=wrap;fontStyle=2;fontFamily=Arial;align=center;fontSize=16;" parent="rFzxfalwFgXO4eg9ru58-133" vertex="1">
          <mxGeometry x="460" y="92" width="120" height="32" as="geometry" />
        </mxCell>
        <mxCell id="KuO2uaz0X1CUAutbRu9o-135" value="" style="vsdxID=55;fillColor=none;gradientColor=none;shape=stencil(nZBLDoAgDERP0z3SIyjew0SURgSD+Lu9kMZoXLhwN9O+tukAlrNpJg1SzDH4QW/URgNYgZTkjA4UkwJUgGXng+6DX1zLfmoymdXo17xh5zmRJ6Q42BWCfc2oJfdAr+Yv+AP9Cb7OJ3H/2JG1HNGz/84klThPVCc=);labelBackgroundColor=none;rounded=0;html=1;whiteSpace=wrap;fontStyle=2;fontFamily=Arial;align=center;fontSize=13;" parent="rFzxfalwFgXO4eg9ru58-133" vertex="1">
          <mxGeometry x="460" y="60" width="120" height="32" as="geometry" />
        </mxCell>
        <mxCell id="KuO2uaz0X1CUAutbRu9o-136" value="&lt;font style=&quot;font-size: 16px; color: rgb(0, 0, 0); direction: ltr; letter-spacing: 0px; line-height: 120%; opacity: 1;&quot;&gt;&lt;span&gt;Позиция&lt;br&gt;&lt;/span&gt;&lt;/font&gt;" style="verticalAlign=middle;align=center;vsdxID=52;fillColor=none;gradientColor=none;shape=stencil(nZBLDoAgDERP0z3SIyjew0SURgSD+Lu9kMZoXLhwN9O+tukAlrNpJg1SzDH4QW/URgNYgZTkjA4UkwJUgGXng+6DX1zLfmoymdXo17xh5zmRJ6Q42BWCfc2oJfdAr+Yv+AP9Cb7OJ3H/2JG1HNGz/84klThPVCc=);strokeWidth=3;labelBackgroundColor=none;rounded=0;html=1;whiteSpace=wrap;fontStyle=2;fontFamily=Arial;" parent="rFzxfalwFgXO4eg9ru58-133" vertex="1">
          <mxGeometry x="460" width="120" height="60" as="geometry" />
        </mxCell>
        <mxCell id="KuO2uaz0X1CUAutbRu9o-137" value="&lt;p style=&quot;margin: 0px; text-indent: 0px; direction: ltr; font-size: 16px;&quot;&gt;R-1&lt;/p&gt;" style="verticalAlign=middle;align=center;vsdxID=61;fillColor=none;gradientColor=none;shape=stencil(nZBLDoAgDERP0z3SIyjew0SURgSD+Lu9kMZoXLhwN9O+tukAlrNpJg1SzDH4QW/URgNYgZTkjA4UkwJUgGXng+6DX1zLfmoymdXo17xh5zmRJ6Q42BWCfc2oJfdAr+Yv+AP9Cb7OJ3H/2JG1HNGz/84klThPVCc=);labelBackgroundColor=none;rounded=0;html=1;whiteSpace=wrap;fontStyle=2;fontFamily=Arial;fontSize=16;" parent="rFzxfalwFgXO4eg9ru58-133" vertex="1">
          <mxGeometry x="460" y="124" width="120" height="32" as="geometry" />
        </mxCell>
        <mxCell id="KuO2uaz0X1CUAutbRu9o-138" value="SW-1 - SW-2" style="vsdxID=64;fillColor=none;gradientColor=none;shape=stencil(nZBLDoAgDERP0z3SIyjew0SURgSD+Lu9kMZoXLhwN9O+tukAlrNpJg1SzDH4QW/URgNYgZTkjA4UkwJUgGXng+6DX1zLfmoymdXo17xh5zmRJ6Q42BWCfc2oJfdAr+Yv+AP9Cb7OJ3H/2JG1HNGz/84klThPVCc=);labelBackgroundColor=none;rounded=0;html=1;whiteSpace=wrap;fontStyle=2;fontFamily=Arial;align=center;fontSize=16;" parent="rFzxfalwFgXO4eg9ru58-133" vertex="1">
          <mxGeometry x="460" y="156" width="120" height="32" as="geometry" />
        </mxCell>
        <mxCell id="KuO2uaz0X1CUAutbRu9o-139" value="&lt;font style=&quot;font-size: 16px; color: rgb(0, 0, 0); direction: ltr; letter-spacing: 0px; line-height: 120%; opacity: 1;&quot;&gt;&lt;span style=&quot;font-size: 16px;&quot;&gt;AP-1-2&lt;br style=&quot;font-size: 16px;&quot;&gt;&lt;/span&gt;&lt;/font&gt;" style="verticalAlign=middle;align=center;vsdxID=67;fillColor=none;gradientColor=none;shape=stencil(nZBLDoAgDERP0z3SIyjew0SURgSD+Lu9kMZoXLhwN9O+tukAlrNpJg1SzDH4QW/URgNYgZTkjA4UkwJUgGXng+6DX1zLfmoymdXo17xh5zmRJ6Q42BWCfc2oJfdAr+Yv+AP9Cb7OJ3H/2JG1HNGz/84klThPVCc=);labelBackgroundColor=none;rounded=0;html=1;whiteSpace=wrap;fontStyle=2;fontFamily=Arial;fontSize=16;" parent="rFzxfalwFgXO4eg9ru58-133" vertex="1">
          <mxGeometry x="460" y="188" width="120" height="32" as="geometry" />
        </mxCell>
        <mxCell id="KuO2uaz0X1CUAutbRu9o-140" value="&lt;font style=&quot;font-size: 16px; color: rgb(0, 0, 0); direction: ltr; letter-spacing: 0px; line-height: 120%; opacity: 1;&quot;&gt;&lt;span style=&quot;font-size: 16px;&quot;&gt;&lt;br style=&quot;font-size: 16px;&quot;&gt;&lt;/span&gt;&lt;/font&gt;" style="verticalAlign=middle;align=center;vsdxID=67;fillColor=none;gradientColor=none;shape=stencil(nZBLDoAgDERP0z3SIyjew0SURgSD+Lu9kMZoXLhwN9O+tukAlrNpJg1SzDH4QW/URgNYgZTkjA4UkwJUgGXng+6DX1zLfmoymdXo17xh5zmRJ6Q42BWCfc2oJfdAr+Yv+AP9Cb7OJ3H/2JG1HNGz/84klThPVCc=);labelBackgroundColor=none;rounded=0;html=1;whiteSpace=wrap;fontStyle=2;fontFamily=Arial;fontSize=16;" parent="rFzxfalwFgXO4eg9ru58-133" vertex="1">
          <mxGeometry x="460" y="220" width="120" height="32" as="geometry" />
        </mxCell>
        <mxCell id="KuO2uaz0X1CUAutbRu9o-141" value="&lt;font style=&quot;font-size: 16px; color: rgb(0, 0, 0); direction: ltr; letter-spacing: 0px; line-height: 120%; opacity: 1;&quot;&gt;&lt;span style=&quot;font-size: 16px;&quot;&gt;&lt;br style=&quot;font-size: 16px;&quot;&gt;&lt;/span&gt;&lt;/font&gt;" style="verticalAlign=middle;align=center;vsdxID=67;fillColor=none;gradientColor=none;shape=stencil(nZBLDoAgDERP0z3SIyjew0SURgSD+Lu9kMZoXLhwN9O+tukAlrNpJg1SzDH4QW/URgNYgZTkjA4UkwJUgGXng+6DX1zLfmoymdXo17xh5zmRJ6Q42BWCfc2oJfdAr+Yv+AP9Cb7OJ3H/2JG1HNGz/84klThPVCc=);labelBackgroundColor=none;rounded=0;html=1;whiteSpace=wrap;fontStyle=2;fontFamily=Arial;fontSize=16;" parent="rFzxfalwFgXO4eg9ru58-133" vertex="1">
          <mxGeometry x="460" y="252" width="120" height="32" as="geometry" />
        </mxCell>
        <mxCell id="KuO2uaz0X1CUAutbRu9o-142" value="PC-1 - PC-12" style="vsdxID=76;fillColor=none;gradientColor=none;shape=stencil(nZBLDoAgDERP0z3SIyjew0SURgSD+Lu9kMZoXLhwN9O+tukAlrNpJg1SzDH4QW/URgNYgZTkjA4UkwJUgGXng+6DX1zLfmoymdXo17xh5zmRJ6Q42BWCfc2oJfdAr+Yv+AP9Cb7OJ3H/2JG1HNGz/84klThPVCc=);labelBackgroundColor=none;rounded=0;html=1;whiteSpace=wrap;fontStyle=2;fontFamily=Arial;align=center;fontSize=16;" parent="rFzxfalwFgXO4eg9ru58-133" vertex="1">
          <mxGeometry x="460" y="284" width="120" height="32" as="geometry" />
        </mxCell>
        <mxCell id="KuO2uaz0X1CUAutbRu9o-143" value="PC-13 - PC-50" style="verticalAlign=middle;align=center;vsdxID=79;fillColor=none;gradientColor=none;shape=stencil(nZBLDoAgDERP0z3SIyjew0SURgSD+Lu9kMZoXLhwN9O+tukAlrNpJg1SzDH4QW/URgNYgZTkjA4UkwJUgGXng+6DX1zLfmoymdXo17xh5zmRJ6Q42BWCfc2oJfdAr+Yv+AP9Cb7OJ3H/2JG1HNGz/84klThPVCc=);labelBackgroundColor=none;rounded=0;html=1;whiteSpace=wrap;fontStyle=2;fontFamily=Arial;fontSize=16;" parent="rFzxfalwFgXO4eg9ru58-133" vertex="1">
          <mxGeometry x="460" y="316" width="120" height="32" as="geometry" />
        </mxCell>
        <mxCell id="KuO2uaz0X1CUAutbRu9o-144" value="PR-1 - PR-6" style="vsdxID=82;fillColor=none;gradientColor=none;shape=stencil(nZBLDoAgDERP0z3SIyjew0SURgSD+Lu9kMZoXLhwN9O+tukAlrNpJg1SzDH4QW/URgNYgZTkjA4UkwJUgGXng+6DX1zLfmoymdXo17xh5zmRJ6Q42BWCfc2oJfdAr+Yv+AP9Cb7OJ3H/2JG1HNGz/84klThPVCc=);labelBackgroundColor=none;rounded=0;html=1;whiteSpace=wrap;fontStyle=2;fontFamily=Arial;align=center;fontSize=16;" parent="rFzxfalwFgXO4eg9ru58-133" vertex="1">
          <mxGeometry x="460" y="348" width="120" height="32" as="geometry" />
        </mxCell>
        <mxCell id="KuO2uaz0X1CUAutbRu9o-145" value="CAM-1 - CAM-5" style="vsdxID=97;fillColor=none;gradientColor=none;shape=stencil(nZBLDoAgDERP0z3SIyjew0SURgSD+Lu9kMZoXLhwN9O+tukAlrNpJg1SzDH4QW/URgNYgZTkjA4UkwJUgGXng+6DX1zLfmoymdXo17xh5zmRJ6Q42BWCfc2oJfdAr+Yv+AP9Cb7OJ3H/2JG1HNGz/84klThPVCc=);labelBackgroundColor=none;rounded=0;html=1;whiteSpace=wrap;fontStyle=2;fontFamily=Arial;align=center;fontSize=16;" parent="rFzxfalwFgXO4eg9ru58-133" vertex="1">
          <mxGeometry x="460" y="380" width="120" height="32" as="geometry" />
        </mxCell>
        <mxCell id="KuO2uaz0X1CUAutbRu9o-146" value="NVR" style="vsdxID=88;fillColor=none;gradientColor=none;shape=stencil(nZBLDoAgDERP0z3SIyjew0SURgSD+Lu9kMZoXLhwN9O+tukAlrNpJg1SzDH4QW/URgNYgZTkjA4UkwJUgGXng+6DX1zLfmoymdXo17xh5zmRJ6Q42BWCfc2oJfdAr+Yv+AP9Cb7OJ3H/2JG1HNGz/84klThPVCc=);labelBackgroundColor=none;rounded=0;html=1;whiteSpace=wrap;fontStyle=2;fontFamily=Arial;align=center;fontSize=16;" parent="rFzxfalwFgXO4eg9ru58-133" vertex="1">
          <mxGeometry x="460" y="412" width="120" height="32" as="geometry" />
        </mxCell>
        <mxCell id="KuO2uaz0X1CUAutbRu9o-147" value="" style="vsdxID=103;fillColor=none;gradientColor=none;shape=stencil(nZBLDoAgDERP0z3SIyjew0SURgSD+Lu9kMZoXLhwN9O+tukAlrNpJg1SzDH4QW/URgNYgZTkjA4UkwJUgGXng+6DX1zLfmoymdXo17xh5zmRJ6Q42BWCfc2oJfdAr+Yv+AP9Cb7OJ3H/2JG1HNGz/84klThPVCc=);labelBackgroundColor=none;rounded=0;html=1;whiteSpace=wrap;align=center;fontStyle=2;fontFamily=Arial;fontSize=16;" parent="rFzxfalwFgXO4eg9ru58-133" vertex="1">
          <mxGeometry x="460" y="444" width="120" height="32" as="geometry" />
        </mxCell>
        <mxCell id="KuO2uaz0X1CUAutbRu9o-148" value="" style="vsdxID=94;fillColor=none;gradientColor=none;shape=stencil(nZBLDoAgDERP0z3SIyjew0SURgSD+Lu9kMZoXLhwN9O+tukAlrNpJg1SzDH4QW/URgNYgZTkjA4UkwJUgGXng+6DX1zLfmoymdXo17xh5zmRJ6Q42BWCfc2oJfdAr+Yv+AP9Cb7OJ3H/2JG1HNGz/84klThPVCc=);labelBackgroundColor=none;rounded=0;html=1;whiteSpace=wrap;fontStyle=2;fontFamily=Arial;align=center;fontSize=16;" parent="rFzxfalwFgXO4eg9ru58-133" vertex="1">
          <mxGeometry x="460" y="508" width="120" height="32" as="geometry" />
        </mxCell>
        <mxCell id="KuO2uaz0X1CUAutbRu9o-149" value="" style="vsdxID=106;fillColor=none;gradientColor=none;shape=stencil(nZBLDoAgDERP0z3SIyjew0SURgSD+Lu9kMZoXLhwN9O+tukAlrNpJg1SzDH4QW/URgNYgZTkjA4UkwJUgGXng+6DX1zLfmoymdXo17xh5zmRJ6Q42BWCfc2oJfdAr+Yv+AP9Cb7OJ3H/2JG1HNGz/84klThPVCc=);labelBackgroundColor=none;rounded=0;html=1;whiteSpace=wrap;fontStyle=2;fontFamily=Arial;align=center;fontSize=16;" parent="rFzxfalwFgXO4eg9ru58-133" vertex="1">
          <mxGeometry x="460" y="540" width="120" height="32" as="geometry" />
        </mxCell>
        <mxCell id="KuO2uaz0X1CUAutbRu9o-150" value="" style="vsdxID=109;fillColor=none;gradientColor=none;shape=stencil(nZBLDoAgDERP0z3SIyjew0SURgSD+Lu9kMZoXLhwN9O+tukAlrNpJg1SzDH4QW/URgNYgZTkjA4UkwJUgGXng+6DX1zLfmoymdXo17xh5zmRJ6Q42BWCfc2oJfdAr+Yv+AP9Cb7OJ3H/2JG1HNGz/84klThPVCc=);labelBackgroundColor=none;rounded=0;html=1;whiteSpace=wrap;fontStyle=2;fontFamily=Arial;align=center;fontSize=16;" parent="rFzxfalwFgXO4eg9ru58-133" vertex="1">
          <mxGeometry x="460" y="572" width="120" height="32" as="geometry" />
        </mxCell>
        <mxCell id="KuO2uaz0X1CUAutbRu9o-151" value="" style="vsdxID=112;fillColor=none;gradientColor=none;shape=stencil(nZBLDoAgDERP0z3SIyjew0SURgSD+Lu9kMZoXLhwN9O+tukAlrNpJg1SzDH4QW/URgNYgZTkjA4UkwJUgGXng+6DX1zLfmoymdXo17xh5zmRJ6Q42BWCfc2oJfdAr+Yv+AP9Cb7OJ3H/2JG1HNGz/84klThPVCc=);labelBackgroundColor=none;rounded=0;html=1;whiteSpace=wrap;fontStyle=2;fontFamily=Arial;align=center;fontSize=16;" parent="rFzxfalwFgXO4eg9ru58-133" vertex="1">
          <mxGeometry x="460" y="668" width="120" height="32" as="geometry" />
        </mxCell>
        <mxCell id="KuO2uaz0X1CUAutbRu9o-152" style="vsdxID=109;fillColor=none;gradientColor=none;shape=stencil(nZBLDoAgDERP0z3SIyjew0SURgSD+Lu9kMZoXLhwN9O+tukAlrNpJg1SzDH4QW/URgNYgZTkjA4UkwJUgGXng+6DX1zLfmoymdXo17xh5zmRJ6Q42BWCfc2oJfdAr+Yv+AP9Cb7OJ3H/2JG1HNGz/84klThPVCc=);labelBackgroundColor=none;rounded=0;html=1;whiteSpace=wrap;fontStyle=2;fontFamily=Arial;align=center;fontSize=16;" parent="rFzxfalwFgXO4eg9ru58-133" vertex="1">
          <mxGeometry x="460" y="636" width="120" height="32" as="geometry" />
        </mxCell>
        <mxCell id="KuO2uaz0X1CUAutbRu9o-153" value="" style="vsdxID=106;fillColor=none;gradientColor=none;shape=stencil(nZBLDoAgDERP0z3SIyjew0SURgSD+Lu9kMZoXLhwN9O+tukAlrNpJg1SzDH4QW/URgNYgZTkjA4UkwJUgGXng+6DX1zLfmoymdXo17xh5zmRJ6Q42BWCfc2oJfdAr+Yv+AP9Cb7OJ3H/2JG1HNGz/84klThPVCc=);labelBackgroundColor=none;rounded=0;html=1;whiteSpace=wrap;fontStyle=2;fontFamily=Arial;align=center;fontSize=16;" parent="rFzxfalwFgXO4eg9ru58-133" vertex="1">
          <mxGeometry x="460" y="604" width="120" height="32" as="geometry" />
        </mxCell>
        <mxCell id="KuO2uaz0X1CUAutbRu9o-154" style="vsdxID=115;fillColor=none;gradientColor=none;shape=stencil(nZBLDoAgDERP0z3SIyjew0SURgSD+Lu9kMZoXLhwN9O+tukAlrNpJg1SzDH4QW/URgNYgZTkjA4UkwJUgGXng+6DX1zLfmoymdXo17xh5zmRJ6Q42BWCfc2oJfdAr+Yv+AP9Cb7OJ3H/2JG1HNGz/84klThPVCc=);labelBackgroundColor=none;rounded=0;html=1;whiteSpace=wrap;fontStyle=2;fontFamily=Arial;align=center;fontSize=16;" parent="rFzxfalwFgXO4eg9ru58-133" vertex="1">
          <mxGeometry x="460" y="700" width="120" height="32" as="geometry" />
        </mxCell>
        <mxCell id="KuO2uaz0X1CUAutbRu9o-155" value="" style="vsdxID=121;fillColor=none;gradientColor=none;shape=stencil(nZBLDoAgDERP0z3SIyjew0SURgSD+Lu9kMZoXLhwN9O+tukAlrNpJg1SzDH4QW/URgNYgZTkjA4UkwJUgGXng+6DX1zLfmoymdXo17xh5zmRJ6Q42BWCfc2oJfdAr+Yv+AP9Cb7OJ3H/2JG1HNGz/84klThPVCc=);labelBackgroundColor=none;rounded=0;html=1;whiteSpace=wrap;fontStyle=2;fontFamily=Arial;align=center;fontSize=16;" parent="rFzxfalwFgXO4eg9ru58-133" vertex="1">
          <mxGeometry x="460" y="764" width="120" height="32" as="geometry" />
        </mxCell>
        <mxCell id="KuO2uaz0X1CUAutbRu9o-156" style="vsdxID=118;fillColor=none;gradientColor=none;shape=stencil(nZBLDoAgDERP0z3SIyjew0SURgSD+Lu9kMZoXLhwN9O+tukAlrNpJg1SzDH4QW/URgNYgZTkjA4UkwJUgGXng+6DX1zLfmoymdXo17xh5zmRJ6Q42BWCfc2oJfdAr+Yv+AP9Cb7OJ3H/2JG1HNGz/84klThPVCc=);labelBackgroundColor=none;rounded=0;html=1;whiteSpace=wrap;fontStyle=2;fontFamily=Arial;align=center;fontSize=16;" parent="rFzxfalwFgXO4eg9ru58-133" vertex="1">
          <mxGeometry x="460" y="732" width="120" height="32" as="geometry" />
        </mxCell>
        <mxCell id="KuO2uaz0X1CUAutbRu9o-157" style="vsdxID=124;fillColor=none;gradientColor=none;shape=stencil(nZBLDoAgDERP0z3SIyjew0SURgSD+Lu9kMZoXLhwN9O+tukAlrNpJg1SzDH4QW/URgNYgZTkjA4UkwJUgGXng+6DX1zLfmoymdXo17xh5zmRJ6Q42BWCfc2oJfdAr+Yv+AP9Cb7OJ3H/2JG1HNGz/84klThPVCc=);labelBackgroundColor=none;rounded=0;html=1;whiteSpace=wrap;fontStyle=2;fontFamily=Arial;align=center;fontSize=16;" parent="rFzxfalwFgXO4eg9ru58-133" vertex="1">
          <mxGeometry x="460" y="796" width="120" height="32" as="geometry" />
        </mxCell>
        <mxCell id="KuO2uaz0X1CUAutbRu9o-158" style="vsdxID=127;fillColor=none;gradientColor=none;shape=stencil(nZBLDoAgDERP0z3SIyjew0SURgSD+Lu9kMZoXLhwN9O+tukAlrNpJg1SzDH4QW/URgNYgZTkjA4UkwJUgGXng+6DX1zLfmoymdXo17xh5zmRJ6Q42BWCfc2oJfdAr+Yv+AP9Cb7OJ3H/2JG1HNGz/84klThPVCc=);labelBackgroundColor=none;rounded=0;html=1;whiteSpace=wrap;fontStyle=2;fontFamily=Arial;align=center;fontSize=16;" parent="rFzxfalwFgXO4eg9ru58-133" vertex="1">
          <mxGeometry x="460" y="828" width="120" height="32" as="geometry" />
        </mxCell>
        <mxCell id="KuO2uaz0X1CUAutbRu9o-159" style="vsdxID=130;fillColor=none;gradientColor=none;shape=stencil(nZBLDoAgDERP0z3SIyjew0SURgSD+Lu9kMZoXLhwN9O+tukAlrNpJg1SzDH4QW/URgNYgZTkjA4UkwJUgGXng+6DX1zLfmoymdXo17xh5zmRJ6Q42BWCfc2oJfdAr+Yv+AP9Cb7OJ3H/2JG1HNGz/84klThPVCc=);labelBackgroundColor=none;rounded=0;html=1;whiteSpace=wrap;fontStyle=2;fontFamily=Arial;align=center;fontSize=16;" parent="rFzxfalwFgXO4eg9ru58-133" vertex="1">
          <mxGeometry x="460" y="860" width="120" height="32" as="geometry" />
        </mxCell>
        <mxCell id="KuO2uaz0X1CUAutbRu9o-160" value="" style="vsdxID=103;fillColor=none;gradientColor=none;shape=stencil(nZBLDoAgDERP0z3SIyjew0SURgSD+Lu9kMZoXLhwN9O+tukAlrNpJg1SzDH4QW/URgNYgZTkjA4UkwJUgGXng+6DX1zLfmoymdXo17xh5zmRJ6Q42BWCfc2oJfdAr+Yv+AP9Cb7OJ3H/2JG1HNGz/84klThPVCc=);labelBackgroundColor=none;rounded=0;html=1;whiteSpace=wrap;align=center;fontStyle=2;fontFamily=Arial;fontSize=16;" parent="rFzxfalwFgXO4eg9ru58-133" vertex="1">
          <mxGeometry x="620" y="476" width="120" height="32" as="geometry" />
        </mxCell>
        <mxCell id="KuO2uaz0X1CUAutbRu9o-161" value="" style="vsdxID=103;fillColor=none;gradientColor=none;shape=stencil(nZBLDoAgDERP0z3SIyjew0SURgSD+Lu9kMZoXLhwN9O+tukAlrNpJg1SzDH4QW/URgNYgZTkjA4UkwJUgGXng+6DX1zLfmoymdXo17xh5zmRJ6Q42BWCfc2oJfdAr+Yv+AP9Cb7OJ3H/2JG1HNGz/84klThPVCc=);labelBackgroundColor=none;rounded=0;html=1;whiteSpace=wrap;align=center;fontStyle=2;fontFamily=Arial;fontSize=16;" parent="rFzxfalwFgXO4eg9ru58-133" vertex="1">
          <mxGeometry x="460" y="476" width="120" height="32" as="geometry" />
        </mxCell>
        <mxCell id="V7uanJTg-HQA3pZkOm5p-134" value="&lt;font style=&quot;font-size: 16px; color: rgb(0, 0, 0); direction: ltr; letter-spacing: 0px; line-height: 120%; opacity: 1;&quot;&gt;&lt;span&gt;Кол.&lt;br&gt;&lt;/span&gt;&lt;/font&gt;" style="verticalAlign=middle;align=center;vsdxID=52;fillColor=none;gradientColor=none;shape=stencil(nZBLDoAgDERP0z3SIyjew0SURgSD+Lu9kMZoXLhwN9O+tukAlrNpJg1SzDH4QW/URgNYgZTkjA4UkwJUgGXng+6DX1zLfmoymdXo17xh5zmRJ6Q42BWCfc2oJfdAr+Yv+AP9Cb7OJ3H/2JG1HNGz/84klThPVCc=);strokeWidth=3;labelBackgroundColor=none;rounded=0;html=1;whiteSpace=wrap;fontStyle=2;fontFamily=Arial;" parent="rFzxfalwFgXO4eg9ru58-133" vertex="1">
          <mxGeometry x="580" width="39.37" height="60" as="geometry" />
        </mxCell>
        <mxCell id="V7uanJTg-HQA3pZkOm5p-135" value="" style="vsdxID=55;fillColor=none;gradientColor=none;shape=stencil(nZBLDoAgDERP0z3SIyjew0SURgSD+Lu9kMZoXLhwN9O+tukAlrNpJg1SzDH4QW/URgNYgZTkjA4UkwJUgGXng+6DX1zLfmoymdXo17xh5zmRJ6Q42BWCfc2oJfdAr+Yv+AP9Cb7OJ3H/2JG1HNGz/84klThPVCc=);labelBackgroundColor=none;rounded=0;html=1;whiteSpace=wrap;fontStyle=2;fontFamily=Arial;align=center;fontSize=13;" parent="rFzxfalwFgXO4eg9ru58-133" vertex="1">
          <mxGeometry x="580" y="60" width="39.37" height="32" as="geometry" />
        </mxCell>
        <mxCell id="V7uanJTg-HQA3pZkOm5p-136" value="1" style="vsdxID=58;fillColor=none;gradientColor=none;shape=stencil(nZBLDoAgDERP0z3SIyjew0SURgSD+Lu9kMZoXLhwN9O+tukAlrNpJg1SzDH4QW/URgNYgZTkjA4UkwJUgGXng+6DX1zLfmoymdXo17xh5zmRJ6Q42BWCfc2oJfdAr+Yv+AP9Cb7OJ3H/2JG1HNGz/84klThPVCc=);labelBackgroundColor=none;rounded=0;html=1;whiteSpace=wrap;fontStyle=2;fontFamily=Arial;align=center;fontSize=16;" parent="rFzxfalwFgXO4eg9ru58-133" vertex="1">
          <mxGeometry x="580" y="92" width="39.37" height="32" as="geometry" />
        </mxCell>
        <mxCell id="V7uanJTg-HQA3pZkOm5p-137" value="2" style="vsdxID=64;fillColor=none;gradientColor=none;shape=stencil(nZBLDoAgDERP0z3SIyjew0SURgSD+Lu9kMZoXLhwN9O+tukAlrNpJg1SzDH4QW/URgNYgZTkjA4UkwJUgGXng+6DX1zLfmoymdXo17xh5zmRJ6Q42BWCfc2oJfdAr+Yv+AP9Cb7OJ3H/2JG1HNGz/84klThPVCc=);labelBackgroundColor=none;rounded=0;html=1;whiteSpace=wrap;fontStyle=2;fontFamily=Arial;align=center;fontSize=16;" parent="rFzxfalwFgXO4eg9ru58-133" vertex="1">
          <mxGeometry x="580" y="156" width="39.37" height="32" as="geometry" />
        </mxCell>
        <mxCell id="V7uanJTg-HQA3pZkOm5p-138" value="&lt;p style=&quot;margin: 0px; text-indent: 0px; direction: ltr; font-size: 16px;&quot;&gt;1&lt;/p&gt;" style="verticalAlign=middle;align=center;vsdxID=61;fillColor=none;gradientColor=none;shape=stencil(nZBLDoAgDERP0z3SIyjew0SURgSD+Lu9kMZoXLhwN9O+tukAlrNpJg1SzDH4QW/URgNYgZTkjA4UkwJUgGXng+6DX1zLfmoymdXo17xh5zmRJ6Q42BWCfc2oJfdAr+Yv+AP9Cb7OJ3H/2JG1HNGz/84klThPVCc=);labelBackgroundColor=none;rounded=0;html=1;whiteSpace=wrap;fontStyle=2;fontFamily=Arial;fontSize=16;" parent="rFzxfalwFgXO4eg9ru58-133" vertex="1">
          <mxGeometry x="580" y="124" width="39.37" height="32" as="geometry" />
        </mxCell>
        <mxCell id="V7uanJTg-HQA3pZkOm5p-139" value="&lt;font style=&quot;font-size: 16px; color: rgb(0, 0, 0); direction: ltr; letter-spacing: 0px; line-height: 120%; opacity: 1;&quot;&gt;&lt;span style=&quot;font-size: 16px;&quot;&gt;2&lt;br style=&quot;font-size: 16px;&quot;&gt;&lt;/span&gt;&lt;/font&gt;" style="verticalAlign=middle;align=center;vsdxID=67;fillColor=none;gradientColor=none;shape=stencil(nZBLDoAgDERP0z3SIyjew0SURgSD+Lu9kMZoXLhwN9O+tukAlrNpJg1SzDH4QW/URgNYgZTkjA4UkwJUgGXng+6DX1zLfmoymdXo17xh5zmRJ6Q42BWCfc2oJfdAr+Yv+AP9Cb7OJ3H/2JG1HNGz/84klThPVCc=);labelBackgroundColor=none;rounded=0;html=1;whiteSpace=wrap;fontStyle=2;fontFamily=Arial;fontSize=16;" parent="rFzxfalwFgXO4eg9ru58-133" vertex="1">
          <mxGeometry x="580" y="188" width="39.37" height="32" as="geometry" />
        </mxCell>
        <mxCell id="V7uanJTg-HQA3pZkOm5p-140" value="&lt;font style=&quot;font-size: 16px; color: rgb(0, 0, 0); direction: ltr; letter-spacing: 0px; line-height: 120%; opacity: 1;&quot;&gt;&lt;span style=&quot;font-size: 16px;&quot;&gt;&lt;br style=&quot;font-size: 16px;&quot;&gt;&lt;/span&gt;&lt;/font&gt;" style="verticalAlign=middle;align=center;vsdxID=67;fillColor=none;gradientColor=none;shape=stencil(nZBLDoAgDERP0z3SIyjew0SURgSD+Lu9kMZoXLhwN9O+tukAlrNpJg1SzDH4QW/URgNYgZTkjA4UkwJUgGXng+6DX1zLfmoymdXo17xh5zmRJ6Q42BWCfc2oJfdAr+Yv+AP9Cb7OJ3H/2JG1HNGz/84klThPVCc=);labelBackgroundColor=none;rounded=0;html=1;whiteSpace=wrap;fontStyle=2;fontFamily=Arial;fontSize=16;" parent="rFzxfalwFgXO4eg9ru58-133" vertex="1">
          <mxGeometry x="580" y="220" width="39.37" height="32" as="geometry" />
        </mxCell>
        <mxCell id="V7uanJTg-HQA3pZkOm5p-141" value="&lt;font style=&quot;font-size: 16px; color: rgb(0, 0, 0); direction: ltr; letter-spacing: 0px; line-height: 120%; opacity: 1;&quot;&gt;&lt;span style=&quot;font-size: 16px;&quot;&gt;&lt;br style=&quot;font-size: 16px;&quot;&gt;&lt;/span&gt;&lt;/font&gt;" style="verticalAlign=middle;align=center;vsdxID=67;fillColor=none;gradientColor=none;shape=stencil(nZBLDoAgDERP0z3SIyjew0SURgSD+Lu9kMZoXLhwN9O+tukAlrNpJg1SzDH4QW/URgNYgZTkjA4UkwJUgGXng+6DX1zLfmoymdXo17xh5zmRJ6Q42BWCfc2oJfdAr+Yv+AP9Cb7OJ3H/2JG1HNGz/84klThPVCc=);labelBackgroundColor=none;rounded=0;html=1;whiteSpace=wrap;fontStyle=2;fontFamily=Arial;fontSize=16;" parent="rFzxfalwFgXO4eg9ru58-133" vertex="1">
          <mxGeometry x="580" y="252" width="39.37" height="32" as="geometry" />
        </mxCell>
        <mxCell id="V7uanJTg-HQA3pZkOm5p-142" value="12" style="vsdxID=76;fillColor=none;gradientColor=none;shape=stencil(nZBLDoAgDERP0z3SIyjew0SURgSD+Lu9kMZoXLhwN9O+tukAlrNpJg1SzDH4QW/URgNYgZTkjA4UkwJUgGXng+6DX1zLfmoymdXo17xh5zmRJ6Q42BWCfc2oJfdAr+Yv+AP9Cb7OJ3H/2JG1HNGz/84klThPVCc=);labelBackgroundColor=none;rounded=0;html=1;whiteSpace=wrap;fontStyle=2;fontFamily=Arial;align=center;fontSize=16;" parent="rFzxfalwFgXO4eg9ru58-133" vertex="1">
          <mxGeometry x="580" y="284" width="39.37" height="32" as="geometry" />
        </mxCell>
        <mxCell id="V7uanJTg-HQA3pZkOm5p-143" value="38" style="verticalAlign=middle;align=center;vsdxID=79;fillColor=none;gradientColor=none;shape=stencil(nZBLDoAgDERP0z3SIyjew0SURgSD+Lu9kMZoXLhwN9O+tukAlrNpJg1SzDH4QW/URgNYgZTkjA4UkwJUgGXng+6DX1zLfmoymdXo17xh5zmRJ6Q42BWCfc2oJfdAr+Yv+AP9Cb7OJ3H/2JG1HNGz/84klThPVCc=);labelBackgroundColor=none;rounded=0;html=1;whiteSpace=wrap;fontStyle=2;fontFamily=Arial;fontSize=16;" parent="rFzxfalwFgXO4eg9ru58-133" vertex="1">
          <mxGeometry x="580" y="316" width="39.37" height="32" as="geometry" />
        </mxCell>
        <mxCell id="V7uanJTg-HQA3pZkOm5p-144" value="6" style="vsdxID=82;fillColor=none;gradientColor=none;shape=stencil(nZBLDoAgDERP0z3SIyjew0SURgSD+Lu9kMZoXLhwN9O+tukAlrNpJg1SzDH4QW/URgNYgZTkjA4UkwJUgGXng+6DX1zLfmoymdXo17xh5zmRJ6Q42BWCfc2oJfdAr+Yv+AP9Cb7OJ3H/2JG1HNGz/84klThPVCc=);labelBackgroundColor=none;rounded=0;html=1;whiteSpace=wrap;fontStyle=2;fontFamily=Arial;align=center;fontSize=16;" parent="rFzxfalwFgXO4eg9ru58-133" vertex="1">
          <mxGeometry x="580" y="348" width="39.37" height="32" as="geometry" />
        </mxCell>
        <mxCell id="V7uanJTg-HQA3pZkOm5p-145" value="5" style="vsdxID=97;fillColor=none;gradientColor=none;shape=stencil(nZBLDoAgDERP0z3SIyjew0SURgSD+Lu9kMZoXLhwN9O+tukAlrNpJg1SzDH4QW/URgNYgZTkjA4UkwJUgGXng+6DX1zLfmoymdXo17xh5zmRJ6Q42BWCfc2oJfdAr+Yv+AP9Cb7OJ3H/2JG1HNGz/84klThPVCc=);labelBackgroundColor=none;rounded=0;html=1;whiteSpace=wrap;fontStyle=2;fontFamily=Arial;align=center;fontSize=16;" parent="rFzxfalwFgXO4eg9ru58-133" vertex="1">
          <mxGeometry x="580" y="380" width="39.37" height="32" as="geometry" />
        </mxCell>
        <mxCell id="V7uanJTg-HQA3pZkOm5p-146" value="1" style="vsdxID=88;fillColor=none;gradientColor=none;shape=stencil(nZBLDoAgDERP0z3SIyjew0SURgSD+Lu9kMZoXLhwN9O+tukAlrNpJg1SzDH4QW/URgNYgZTkjA4UkwJUgGXng+6DX1zLfmoymdXo17xh5zmRJ6Q42BWCfc2oJfdAr+Yv+AP9Cb7OJ3H/2JG1HNGz/84klThPVCc=);labelBackgroundColor=none;rounded=0;html=1;whiteSpace=wrap;fontStyle=2;fontFamily=Arial;align=center;fontSize=16;" parent="rFzxfalwFgXO4eg9ru58-133" vertex="1">
          <mxGeometry x="580" y="412" width="39.37" height="32" as="geometry" />
        </mxCell>
        <mxCell id="V7uanJTg-HQA3pZkOm5p-147" value="" style="vsdxID=103;fillColor=none;gradientColor=none;shape=stencil(nZBLDoAgDERP0z3SIyjew0SURgSD+Lu9kMZoXLhwN9O+tukAlrNpJg1SzDH4QW/URgNYgZTkjA4UkwJUgGXng+6DX1zLfmoymdXo17xh5zmRJ6Q42BWCfc2oJfdAr+Yv+AP9Cb7OJ3H/2JG1HNGz/84klThPVCc=);labelBackgroundColor=none;rounded=0;html=1;whiteSpace=wrap;align=center;fontStyle=2;fontFamily=Arial;fontSize=16;" parent="rFzxfalwFgXO4eg9ru58-133" vertex="1">
          <mxGeometry x="580" y="444" width="39.37" height="32" as="geometry" />
        </mxCell>
        <mxCell id="V7uanJTg-HQA3pZkOm5p-148" value="" style="vsdxID=103;fillColor=none;gradientColor=none;shape=stencil(nZBLDoAgDERP0z3SIyjew0SURgSD+Lu9kMZoXLhwN9O+tukAlrNpJg1SzDH4QW/URgNYgZTkjA4UkwJUgGXng+6DX1zLfmoymdXo17xh5zmRJ6Q42BWCfc2oJfdAr+Yv+AP9Cb7OJ3H/2JG1HNGz/84klThPVCc=);labelBackgroundColor=none;rounded=0;html=1;whiteSpace=wrap;align=center;fontStyle=2;fontFamily=Arial;fontSize=16;" parent="rFzxfalwFgXO4eg9ru58-133" vertex="1">
          <mxGeometry x="580" y="476" width="39.37" height="32" as="geometry" />
        </mxCell>
        <mxCell id="V7uanJTg-HQA3pZkOm5p-149" value="100" style="vsdxID=94;fillColor=none;gradientColor=none;shape=stencil(nZBLDoAgDERP0z3SIyjew0SURgSD+Lu9kMZoXLhwN9O+tukAlrNpJg1SzDH4QW/URgNYgZTkjA4UkwJUgGXng+6DX1zLfmoymdXo17xh5zmRJ6Q42BWCfc2oJfdAr+Yv+AP9Cb7OJ3H/2JG1HNGz/84klThPVCc=);labelBackgroundColor=none;rounded=0;html=1;whiteSpace=wrap;fontStyle=2;fontFamily=Arial;align=center;fontSize=16;" parent="rFzxfalwFgXO4eg9ru58-133" vertex="1">
          <mxGeometry x="580" y="508" width="39.37" height="32" as="geometry" />
        </mxCell>
        <mxCell id="V7uanJTg-HQA3pZkOm5p-150" value="20" style="vsdxID=106;fillColor=none;gradientColor=none;shape=stencil(nZBLDoAgDERP0z3SIyjew0SURgSD+Lu9kMZoXLhwN9O+tukAlrNpJg1SzDH4QW/URgNYgZTkjA4UkwJUgGXng+6DX1zLfmoymdXo17xh5zmRJ6Q42BWCfc2oJfdAr+Yv+AP9Cb7OJ3H/2JG1HNGz/84klThPVCc=);labelBackgroundColor=none;rounded=0;html=1;whiteSpace=wrap;fontStyle=2;fontFamily=Arial;align=center;fontSize=16;" parent="rFzxfalwFgXO4eg9ru58-133" vertex="1">
          <mxGeometry x="580" y="540" width="39.37" height="32" as="geometry" />
        </mxCell>
        <mxCell id="V7uanJTg-HQA3pZkOm5p-151" value="7" style="vsdxID=109;fillColor=none;gradientColor=none;shape=stencil(nZBLDoAgDERP0z3SIyjew0SURgSD+Lu9kMZoXLhwN9O+tukAlrNpJg1SzDH4QW/URgNYgZTkjA4UkwJUgGXng+6DX1zLfmoymdXo17xh5zmRJ6Q42BWCfc2oJfdAr+Yv+AP9Cb7OJ3H/2JG1HNGz/84klThPVCc=);labelBackgroundColor=none;rounded=0;html=1;whiteSpace=wrap;fontStyle=2;fontFamily=Arial;align=center;fontSize=16;" parent="rFzxfalwFgXO4eg9ru58-133" vertex="1">
          <mxGeometry x="580" y="572" width="39.37" height="32" as="geometry" />
        </mxCell>
        <mxCell id="V7uanJTg-HQA3pZkOm5p-152" value="" style="vsdxID=106;fillColor=none;gradientColor=none;shape=stencil(nZBLDoAgDERP0z3SIyjew0SURgSD+Lu9kMZoXLhwN9O+tukAlrNpJg1SzDH4QW/URgNYgZTkjA4UkwJUgGXng+6DX1zLfmoymdXo17xh5zmRJ6Q42BWCfc2oJfdAr+Yv+AP9Cb7OJ3H/2JG1HNGz/84klThPVCc=);labelBackgroundColor=none;rounded=0;html=1;whiteSpace=wrap;fontStyle=2;fontFamily=Arial;align=center;fontSize=16;" parent="rFzxfalwFgXO4eg9ru58-133" vertex="1">
          <mxGeometry x="580" y="604" width="39.37" height="32" as="geometry" />
        </mxCell>
        <mxCell id="V7uanJTg-HQA3pZkOm5p-153" value="" style="vsdxID=109;fillColor=none;gradientColor=none;shape=stencil(nZBLDoAgDERP0z3SIyjew0SURgSD+Lu9kMZoXLhwN9O+tukAlrNpJg1SzDH4QW/URgNYgZTkjA4UkwJUgGXng+6DX1zLfmoymdXo17xh5zmRJ6Q42BWCfc2oJfdAr+Yv+AP9Cb7OJ3H/2JG1HNGz/84klThPVCc=);labelBackgroundColor=none;rounded=0;html=1;whiteSpace=wrap;fontStyle=2;fontFamily=Arial;align=center;fontSize=16;" parent="rFzxfalwFgXO4eg9ru58-133" vertex="1">
          <mxGeometry x="580" y="636" width="39.37" height="32" as="geometry" />
        </mxCell>
        <mxCell id="V7uanJTg-HQA3pZkOm5p-154" value="" style="vsdxID=112;fillColor=none;gradientColor=none;shape=stencil(nZBLDoAgDERP0z3SIyjew0SURgSD+Lu9kMZoXLhwN9O+tukAlrNpJg1SzDH4QW/URgNYgZTkjA4UkwJUgGXng+6DX1zLfmoymdXo17xh5zmRJ6Q42BWCfc2oJfdAr+Yv+AP9Cb7OJ3H/2JG1HNGz/84klThPVCc=);labelBackgroundColor=none;rounded=0;html=1;whiteSpace=wrap;fontStyle=2;fontFamily=Arial;align=center;fontSize=16;" parent="rFzxfalwFgXO4eg9ru58-133" vertex="1">
          <mxGeometry x="580" y="668" width="39.37" height="32" as="geometry" />
        </mxCell>
        <mxCell id="V7uanJTg-HQA3pZkOm5p-155" style="vsdxID=115;fillColor=none;gradientColor=none;shape=stencil(nZBLDoAgDERP0z3SIyjew0SURgSD+Lu9kMZoXLhwN9O+tukAlrNpJg1SzDH4QW/URgNYgZTkjA4UkwJUgGXng+6DX1zLfmoymdXo17xh5zmRJ6Q42BWCfc2oJfdAr+Yv+AP9Cb7OJ3H/2JG1HNGz/84klThPVCc=);labelBackgroundColor=none;rounded=0;html=1;whiteSpace=wrap;fontStyle=2;fontFamily=Arial;align=center;fontSize=16;" parent="rFzxfalwFgXO4eg9ru58-133" vertex="1">
          <mxGeometry x="580" y="700" width="39.37" height="32" as="geometry" />
        </mxCell>
        <mxCell id="V7uanJTg-HQA3pZkOm5p-157" style="vsdxID=118;fillColor=none;gradientColor=none;shape=stencil(nZBLDoAgDERP0z3SIyjew0SURgSD+Lu9kMZoXLhwN9O+tukAlrNpJg1SzDH4QW/URgNYgZTkjA4UkwJUgGXng+6DX1zLfmoymdXo17xh5zmRJ6Q42BWCfc2oJfdAr+Yv+AP9Cb7OJ3H/2JG1HNGz/84klThPVCc=);labelBackgroundColor=none;rounded=0;html=1;whiteSpace=wrap;fontStyle=2;fontFamily=Arial;align=center;fontSize=16;" parent="rFzxfalwFgXO4eg9ru58-133" vertex="1">
          <mxGeometry x="580" y="732" width="39.37" height="32" as="geometry" />
        </mxCell>
        <mxCell id="V7uanJTg-HQA3pZkOm5p-158" style="vsdxID=124;fillColor=none;gradientColor=none;shape=stencil(nZBLDoAgDERP0z3SIyjew0SURgSD+Lu9kMZoXLhwN9O+tukAlrNpJg1SzDH4QW/URgNYgZTkjA4UkwJUgGXng+6DX1zLfmoymdXo17xh5zmRJ6Q42BWCfc2oJfdAr+Yv+AP9Cb7OJ3H/2JG1HNGz/84klThPVCc=);labelBackgroundColor=none;rounded=0;html=1;whiteSpace=wrap;fontStyle=2;fontFamily=Arial;align=center;fontSize=16;" parent="rFzxfalwFgXO4eg9ru58-133" vertex="1">
          <mxGeometry x="580" y="796" width="39.37" height="32" as="geometry" />
        </mxCell>
        <mxCell id="V7uanJTg-HQA3pZkOm5p-159" style="vsdxID=127;fillColor=none;gradientColor=none;shape=stencil(nZBLDoAgDERP0z3SIyjew0SURgSD+Lu9kMZoXLhwN9O+tukAlrNpJg1SzDH4QW/URgNYgZTkjA4UkwJUgGXng+6DX1zLfmoymdXo17xh5zmRJ6Q42BWCfc2oJfdAr+Yv+AP9Cb7OJ3H/2JG1HNGz/84klThPVCc=);labelBackgroundColor=none;rounded=0;html=1;whiteSpace=wrap;fontStyle=2;fontFamily=Arial;align=center;fontSize=16;" parent="rFzxfalwFgXO4eg9ru58-133" vertex="1">
          <mxGeometry x="580" y="828" width="39.37" height="32" as="geometry" />
        </mxCell>
        <mxCell id="V7uanJTg-HQA3pZkOm5p-160" style="vsdxID=130;fillColor=none;gradientColor=none;shape=stencil(nZBLDoAgDERP0z3SIyjew0SURgSD+Lu9kMZoXLhwN9O+tukAlrNpJg1SzDH4QW/URgNYgZTkjA4UkwJUgGXng+6DX1zLfmoymdXo17xh5zmRJ6Q42BWCfc2oJfdAr+Yv+AP9Cb7OJ3H/2JG1HNGz/84klThPVCc=);labelBackgroundColor=none;rounded=0;html=1;whiteSpace=wrap;fontStyle=2;fontFamily=Arial;align=center;fontSize=16;" parent="rFzxfalwFgXO4eg9ru58-133" vertex="1">
          <mxGeometry x="580" y="860" width="39.37" height="32" as="geometry" />
        </mxCell>
        <mxCell id="V7uanJTg-HQA3pZkOm5p-161" style="vsdxID=132;edgeStyle=none;startArrow=none;endArrow=none;startSize=5;endSize=5;strokeWidth=2;spacingTop=0;spacingBottom=0;spacingLeft=2;spacingRight=0;verticalAlign=middle;html=1;labelBackgroundColor=#ffffff;rounded=0;align=center;fontFamily=Arial;fontStyle=2" parent="rFzxfalwFgXO4eg9ru58-133" edge="1">
          <mxGeometry x="-116" y="-9" as="geometry">
            <Array as="points" />
            <mxPoint x="580" y="1" as="sourcePoint" />
            <mxPoint x="580" y="929" as="targetPoint" />
          </mxGeometry>
        </mxCell>
        <mxCell id="V7uanJTg-HQA3pZkOm5p-162" style="vsdxID=132;edgeStyle=none;startArrow=none;endArrow=none;startSize=5;endSize=5;strokeWidth=2;spacingTop=0;spacingBottom=0;spacingLeft=2;spacingRight=0;verticalAlign=middle;html=1;labelBackgroundColor=#ffffff;rounded=0;align=center;fontFamily=Arial;fontStyle=2" parent="rFzxfalwFgXO4eg9ru58-133" edge="1">
          <mxGeometry x="-312" y="-18" as="geometry">
            <Array as="points" />
            <mxPoint x="460" y="2.0000000000000284" as="sourcePoint" />
            <mxPoint x="460" y="930" as="targetPoint" />
          </mxGeometry>
        </mxCell>
        <mxCell id="V7uanJTg-HQA3pZkOm5p-163" value="&lt;p style=&quot;line-height: 90%;&quot;&gt;&lt;font style=&quot;font-size: 12px;&quot;&gt;Иностранное производство&lt;/font&gt;&lt;/p&gt;" style="vsdxID=64;fillColor=none;gradientColor=none;shape=stencil(nZBLDoAgDERP0z3SIyjew0SURgSD+Lu9kMZoXLhwN9O+tukAlrNpJg1SzDH4QW/URgNYgZTkjA4UkwJUgGXng+6DX1zLfmoymdXo17xh5zmRJ6Q42BWCfc2oJfdAr+Yv+AP9Cb7OJ3H/2JG1HNGz/84klThPVCc=);labelBackgroundColor=none;rounded=0;html=1;whiteSpace=wrap;fontStyle=2;fontFamily=Arial;align=center;fontSize=16;" parent="rFzxfalwFgXO4eg9ru58-133" vertex="1">
          <mxGeometry x="620" y="188" width="120" height="32" as="geometry" />
        </mxCell>
        <mxCell id="V7uanJTg-HQA3pZkOm5p-164" value="&lt;p style=&quot;line-height: 90%;&quot;&gt;&lt;font style=&quot;font-size: 12px;&quot;&gt;Иностранное производство&lt;/font&gt;&lt;/p&gt;" style="vsdxID=64;fillColor=none;gradientColor=none;shape=stencil(nZBLDoAgDERP0z3SIyjew0SURgSD+Lu9kMZoXLhwN9O+tukAlrNpJg1SzDH4QW/URgNYgZTkjA4UkwJUgGXng+6DX1zLfmoymdXo17xh5zmRJ6Q42BWCfc2oJfdAr+Yv+AP9Cb7OJ3H/2JG1HNGz/84klThPVCc=);labelBackgroundColor=none;rounded=0;html=1;whiteSpace=wrap;fontStyle=2;fontFamily=Arial;align=center;fontSize=16;" parent="rFzxfalwFgXO4eg9ru58-133" vertex="1">
          <mxGeometry x="620" y="412" width="120" height="32" as="geometry" />
        </mxCell>
        <mxCell id="V7uanJTg-HQA3pZkOm5p-165" value="&lt;p style=&quot;line-height: 90%;&quot;&gt;&lt;br&gt;&lt;/p&gt;" style="vsdxID=64;fillColor=none;gradientColor=none;shape=stencil(nZBLDoAgDERP0z3SIyjew0SURgSD+Lu9kMZoXLhwN9O+tukAlrNpJg1SzDH4QW/URgNYgZTkjA4UkwJUgGXng+6DX1zLfmoymdXo17xh5zmRJ6Q42BWCfc2oJfdAr+Yv+AP9Cb7OJ3H/2JG1HNGz/84klThPVCc=);labelBackgroundColor=none;rounded=0;html=1;whiteSpace=wrap;fontStyle=2;fontFamily=Arial;align=center;fontSize=16;" parent="rFzxfalwFgXO4eg9ru58-133" vertex="1">
          <mxGeometry x="620" y="444" width="120" height="32" as="geometry" />
        </mxCell>
        <mxCell id="V7uanJTg-HQA3pZkOm5p-167" value="&lt;p style=&quot;line-height: 90%;&quot;&gt;&lt;br&gt;&lt;/p&gt;" style="vsdxID=64;fillColor=none;gradientColor=none;shape=stencil(nZBLDoAgDERP0z3SIyjew0SURgSD+Lu9kMZoXLhwN9O+tukAlrNpJg1SzDH4QW/URgNYgZTkjA4UkwJUgGXng+6DX1zLfmoymdXo17xh5zmRJ6Q42BWCfc2oJfdAr+Yv+AP9Cb7OJ3H/2JG1HNGz/84klThPVCc=);labelBackgroundColor=none;rounded=0;html=1;whiteSpace=wrap;fontStyle=2;fontFamily=Arial;align=center;fontSize=16;" parent="rFzxfalwFgXO4eg9ru58-133" vertex="1">
          <mxGeometry x="619" y="508" width="120" height="32" as="geometry" />
        </mxCell>
        <mxCell id="V7uanJTg-HQA3pZkOm5p-169" value="10" style="vsdxID=92;fillColor=none;gradientColor=none;shape=stencil(nZBLDoAgDERP0z3SIyjew0SURgSD+Lu9kMZoXLhwN9O+tukAlrNpJg1SzDH4QW/URgNYgZTkjA4UkwJUgGXng+6DX1zLfmoymdXo17xh5zmRJ6Q42BWCfc2oJfdAr+Yv+AP9Cb7OJ3H/2JG1HNGz/84klThPVCc=);labelBackgroundColor=none;rounded=0;html=1;whiteSpace=wrap;fontStyle=2;fontFamily=Arial;align=center;fontSize=16;spacingLeft=2;" parent="rFzxfalwFgXO4eg9ru58-133" vertex="1">
          <mxGeometry y="508" width="79.9211" height="32" as="geometry" />
        </mxCell>
        <mxCell id="V7uanJTg-HQA3pZkOm5p-170" value="&lt;p style=&quot;line-height: 90%;&quot;&gt;&lt;br&gt;&lt;/p&gt;" style="vsdxID=64;fillColor=none;gradientColor=none;shape=stencil(nZBLDoAgDERP0z3SIyjew0SURgSD+Lu9kMZoXLhwN9O+tukAlrNpJg1SzDH4QW/URgNYgZTkjA4UkwJUgGXng+6DX1zLfmoymdXo17xh5zmRJ6Q42BWCfc2oJfdAr+Yv+AP9Cb7OJ3H/2JG1HNGz/84klThPVCc=);labelBackgroundColor=none;rounded=0;html=1;whiteSpace=wrap;fontStyle=2;fontFamily=Arial;align=center;fontSize=16;" parent="rFzxfalwFgXO4eg9ru58-133" vertex="1">
          <mxGeometry x="619" y="668" width="120" height="32" as="geometry" />
        </mxCell>
        <mxCell id="V7uanJTg-HQA3pZkOm5p-171" value="&lt;p style=&quot;line-height: 90%;&quot;&gt;&lt;br&gt;&lt;/p&gt;" style="vsdxID=64;fillColor=none;gradientColor=none;shape=stencil(nZBLDoAgDERP0z3SIyjew0SURgSD+Lu9kMZoXLhwN9O+tukAlrNpJg1SzDH4QW/URgNYgZTkjA4UkwJUgGXng+6DX1zLfmoymdXo17xh5zmRJ6Q42BWCfc2oJfdAr+Yv+AP9Cb7OJ3H/2JG1HNGz/84klThPVCc=);labelBackgroundColor=none;rounded=0;html=1;whiteSpace=wrap;fontStyle=2;fontFamily=Arial;align=center;fontSize=16;" parent="rFzxfalwFgXO4eg9ru58-133" vertex="1">
          <mxGeometry x="620" y="604" width="120" height="32" as="geometry" />
        </mxCell>
        <mxCell id="V7uanJTg-HQA3pZkOm5p-172" value="&lt;p style=&quot;line-height: 90%;&quot;&gt;&lt;br&gt;&lt;/p&gt;" style="vsdxID=64;fillColor=none;gradientColor=none;shape=stencil(nZBLDoAgDERP0z3SIyjew0SURgSD+Lu9kMZoXLhwN9O+tukAlrNpJg1SzDH4QW/URgNYgZTkjA4UkwJUgGXng+6DX1zLfmoymdXo17xh5zmRJ6Q42BWCfc2oJfdAr+Yv+AP9Cb7OJ3H/2JG1HNGz/84klThPVCc=);labelBackgroundColor=none;rounded=0;html=1;whiteSpace=wrap;fontStyle=2;fontFamily=Arial;align=center;fontSize=16;" parent="rFzxfalwFgXO4eg9ru58-133" vertex="1">
          <mxGeometry x="620" y="636" width="120" height="32" as="geometry" />
        </mxCell>
        <mxCell id="V7uanJTg-HQA3pZkOm5p-173" value="&lt;p style=&quot;line-height: 90%;&quot;&gt;&lt;br&gt;&lt;/p&gt;" style="vsdxID=64;fillColor=none;gradientColor=none;shape=stencil(nZBLDoAgDERP0z3SIyjew0SURgSD+Lu9kMZoXLhwN9O+tukAlrNpJg1SzDH4QW/URgNYgZTkjA4UkwJUgGXng+6DX1zLfmoymdXo17xh5zmRJ6Q42BWCfc2oJfdAr+Yv+AP9Cb7OJ3H/2JG1HNGz/84klThPVCc=);labelBackgroundColor=none;rounded=0;html=1;whiteSpace=wrap;fontStyle=2;fontFamily=Arial;align=center;fontSize=16;" parent="rFzxfalwFgXO4eg9ru58-133" vertex="1">
          <mxGeometry x="620" y="764" width="120" height="32" as="geometry" />
        </mxCell>
        <mxCell id="O172wPLmugmlNxQTk3gz-137" value="&lt;p style=&quot;line-height: 90%;&quot;&gt;&lt;font style=&quot;font-size: 12px;&quot;&gt;Иностранное производство&lt;/font&gt;&lt;/p&gt;" style="vsdxID=64;fillColor=none;gradientColor=none;shape=stencil(nZBLDoAgDERP0z3SIyjew0SURgSD+Lu9kMZoXLhwN9O+tukAlrNpJg1SzDH4QW/URgNYgZTkjA4UkwJUgGXng+6DX1zLfmoymdXo17xh5zmRJ6Q42BWCfc2oJfdAr+Yv+AP9Cb7OJ3H/2JG1HNGz/84klThPVCc=);labelBackgroundColor=none;rounded=0;html=1;whiteSpace=wrap;fontStyle=2;fontFamily=Arial;align=center;fontSize=16;" vertex="1" parent="rFzxfalwFgXO4eg9ru58-133">
          <mxGeometry x="620" y="284" width="120" height="32" as="geometry" />
        </mxCell>
        <mxCell id="O172wPLmugmlNxQTk3gz-138" value="&lt;p style=&quot;line-height: 90%;&quot;&gt;&lt;font style=&quot;font-size: 12px;&quot;&gt;Иностранное производство&lt;/font&gt;&lt;/p&gt;" style="vsdxID=64;fillColor=none;gradientColor=none;shape=stencil(nZBLDoAgDERP0z3SIyjew0SURgSD+Lu9kMZoXLhwN9O+tukAlrNpJg1SzDH4QW/URgNYgZTkjA4UkwJUgGXng+6DX1zLfmoymdXo17xh5zmRJ6Q42BWCfc2oJfdAr+Yv+AP9Cb7OJ3H/2JG1HNGz/84klThPVCc=);labelBackgroundColor=none;rounded=0;html=1;whiteSpace=wrap;fontStyle=2;fontFamily=Arial;align=center;fontSize=16;" vertex="1" parent="rFzxfalwFgXO4eg9ru58-133">
          <mxGeometry x="620" y="348" width="120" height="32" as="geometry" />
        </mxCell>
        <mxCell id="O172wPLmugmlNxQTk3gz-139" value="&lt;p style=&quot;line-height: 90%;&quot;&gt;&lt;font style=&quot;font-size: 12px;&quot;&gt;Иностранное производство&lt;/font&gt;&lt;/p&gt;" style="vsdxID=64;fillColor=none;gradientColor=none;shape=stencil(nZBLDoAgDERP0z3SIyjew0SURgSD+Lu9kMZoXLhwN9O+tukAlrNpJg1SzDH4QW/URgNYgZTkjA4UkwJUgGXng+6DX1zLfmoymdXo17xh5zmRJ6Q42BWCfc2oJfdAr+Yv+AP9Cb7OJ3H/2JG1HNGz/84klThPVCc=);labelBackgroundColor=none;rounded=0;html=1;whiteSpace=wrap;fontStyle=2;fontFamily=Arial;align=center;fontSize=16;" vertex="1" parent="rFzxfalwFgXO4eg9ru58-133">
          <mxGeometry x="620" y="380" width="120" height="32" as="geometry" />
        </mxCell>
        <mxCell id="O172wPLmugmlNxQTk3gz-143" value="&lt;p style=&quot;line-height: 90%;&quot;&gt;&lt;font style=&quot;font-size: 12px;&quot;&gt;Иностранное производство&lt;/font&gt;&lt;/p&gt;" style="vsdxID=64;fillColor=none;gradientColor=none;shape=stencil(nZBLDoAgDERP0z3SIyjew0SURgSD+Lu9kMZoXLhwN9O+tukAlrNpJg1SzDH4QW/URgNYgZTkjA4UkwJUgGXng+6DX1zLfmoymdXo17xh5zmRJ6Q42BWCfc2oJfdAr+Yv+AP9Cb7OJ3H/2JG1HNGz/84klThPVCc=);labelBackgroundColor=none;rounded=0;html=1;whiteSpace=wrap;fontStyle=2;fontFamily=Arial;align=center;fontSize=16;" vertex="1" parent="rFzxfalwFgXO4eg9ru58-133">
          <mxGeometry x="620" y="508" width="120" height="32" as="geometry" />
        </mxCell>
        <mxCell id="O172wPLmugmlNxQTk3gz-144" value="&lt;p style=&quot;line-height: 90%;&quot;&gt;&lt;font style=&quot;font-size: 12px;&quot;&gt;Иностранное производство&lt;/font&gt;&lt;/p&gt;" style="vsdxID=64;fillColor=none;gradientColor=none;shape=stencil(nZBLDoAgDERP0z3SIyjew0SURgSD+Lu9kMZoXLhwN9O+tukAlrNpJg1SzDH4QW/URgNYgZTkjA4UkwJUgGXng+6DX1zLfmoymdXo17xh5zmRJ6Q42BWCfc2oJfdAr+Yv+AP9Cb7OJ3H/2JG1HNGz/84klThPVCc=);labelBackgroundColor=none;rounded=0;html=1;whiteSpace=wrap;fontStyle=2;fontFamily=Arial;align=center;fontSize=16;" vertex="1" parent="rFzxfalwFgXO4eg9ru58-133">
          <mxGeometry x="620" y="540" width="120" height="32" as="geometry" />
        </mxCell>
        <mxCell id="O172wPLmugmlNxQTk3gz-145" value="&lt;p style=&quot;line-height: 90%;&quot;&gt;&lt;font style=&quot;font-size: 12px;&quot;&gt;Иностранное производство&lt;/font&gt;&lt;/p&gt;" style="vsdxID=64;fillColor=none;gradientColor=none;shape=stencil(nZBLDoAgDERP0z3SIyjew0SURgSD+Lu9kMZoXLhwN9O+tukAlrNpJg1SzDH4QW/URgNYgZTkjA4UkwJUgGXng+6DX1zLfmoymdXo17xh5zmRJ6Q42BWCfc2oJfdAr+Yv+AP9Cb7OJ3H/2JG1HNGz/84klThPVCc=);labelBackgroundColor=none;rounded=0;html=1;whiteSpace=wrap;fontStyle=2;fontFamily=Arial;align=center;fontSize=16;" vertex="1" parent="rFzxfalwFgXO4eg9ru58-133">
          <mxGeometry x="620" y="572" width="120" height="32" as="geometry" />
        </mxCell>
      </root>
    </mxGraphModel>
  </diagram>
</mxfile>
